<svg xmlns="http://www.w3.org/2000/svg" xmlns:xlink="http://www.w3.org/1999/xlink" version="1.1" width="380.721" height="380.721" style="enable-background:new 0 0 380.721 380.721;" xml:space="preserve"><rect id="backgroundrect" width="100%" height="100%" x="0" y="0" fill="none" stroke="none"/>                 <g class="currentLayer" style=""><title>Layer 1</title><g id="svg_1" class="selected" fill="#165b98" fill-opacity="1"> <g id="svg_2" fill="#165b98" fill-opacity="1"> <path d="M189.23563697052003,31.51754549789429 c-88.673,0 -160.546,71.873 -160.546,160.547 c0,63.891 37.418,118.894 91.445,144.734 l5.025,-97.098 c0,0 -9.452,-3.102 -11.521,-4.112 c-20.048,-8.831 -34.612,-34.833 -34.612,-68.58 c0,-36.825 28.559,-68.544 56.17,-68.806 c0.035,0 0.035,0 0.05800000000000002,0 c0.012000000000000004,0 0.035,0 0.04600000000000002,0 c27.617,0.261 56.177,31.98 56.177,68.806 c0,33.747 -14.582,59.738 -34.589,68.58 c-0.15700000000000006,0.06900000000000003 -11.613,4.229 -11.613,4.229 l5.612,107.961 c12.315,3.031 25.119,4.8100000000000005 38.37,4.8100000000000005 c17.87,0 34.984,-3.044 51.041,-8.424 l4.973,-96.214 c-13.105,-2.882 -24.283,-11.225 -31.289,-21.692 c-8.679,-13.001 6.681,-128.067 6.681,-128.067 h9.992 v107.978 h9.923 V98.20354549789428 h10.852 v107.99 h9.876 V98.20354549789428 h11.259 v107.99 h9.91 V98.20354549789428 h7.668 c0,0 15.36,115.066 6.67,128.067 c-6.937,10.364 -18.01,18.683 -30.952,21.634 c-0.232,0.08200000000000003 -0.4420000000000001,0.16200000000000006 -0.4420000000000001,0.16200000000000006 l4.322,82.761 c47.823,-27.804 80.053,-79.46 80.053,-138.762 C349.77063697052,103.39154549789428 277.89763697052,31.51754549789429 189.23563697052003,31.51754549789429 z" fill="#165b98" id="svg_3" fill-opacity="1"/> <path d="M102.52563697052003,150.68454549789428 c0.5750000000000002,-2.341 1.348,-4.566 1.383,-4.606 c0.25,-0.8770000000000002 -0.21500000000000005,-1.772 -1.1680000000000001,-2.341 c-0.906,-0.4880000000000001 -2.01,-0.23800000000000004 -2.521,0.546 c0,0 -1.098,1.749 -2.6900000000000004,4.334 c-1.295,2.225 -3.212,5.78 -4.52,10.207 c-1.133,3.88 -2.486,9.039 -3.096,14.813 c-0.261,3.033 -0.3200000000000001,5.769 -0.22700000000000006,8.586 c0.22700000000000006,3.212 0.7140000000000002,5.96 1.6440000000000001,9.103 c3.154,8.964 5.583,17.644 14.349,26.206 c2.771,2.847 5.618,4.787 7.674,6.216 l0.7260000000000002,0.511 c0.4420000000000001,0.2910000000000001 0.8660000000000002,0.559 1.284,0.803 c1.726,0.906 2.8810000000000002,1.231 3.091,1.2770000000000001 c0.8590000000000002,0.232 1.743,-0.18600000000000005 2.108,-0.8830000000000002 c0.3430000000000002,-0.7320000000000002 0.09300000000000005,-1.6500000000000004 -0.6210000000000002,-2.23 c0,0 -1,-0.8710000000000002 -2.283,-2.498 c-0.8770000000000002,-0.988 -1.83,-2.417 -2.939,-4.031 c-0.784,-1.139 -1.7080000000000002,-2.4290000000000003 -2.568,-3.684 c-4.27,-6.518 -6.732,-15.615 -10.137,-24.934 c-0.6680000000000003,-2.022 -1.214,-4.642 -1.4180000000000001,-6.867 c-0.272,-2.568 -0.4,-5.042 -0.4,-7.337 c-0.09900000000000006,-5.333 0.139,-9.911 0.6040000000000002,-13.623 C101.33463697052002,156.0645454978943 101.75263697052002,152.9215454978943 102.52563697052003,150.68454549789428 z" fill="#165b98" id="svg_4" fill-opacity="1"/> <path d="M189.23563697052003,1.704545497894287 C84.27863697052003,1.704545497894287 -1.1363630294799805,87.10154549789429 -1.1363630294799805,192.0645454978943 C-1.1363630294799805,297.0045454978943 84.27863697052003,382.4255454978943 189.23563697052003,382.4255454978943 c104.952,0 190.35,-85.421 190.35,-190.361 C379.58463697052,87.10154549789429 294.18763697052003,1.704545497894287 189.23563697052003,1.704545497894287 zM189.23563697052003,368.2275454978943 c-97.144,0 -176.18,-79.03 -176.18,-176.163 c0,-97.144 79.036,-176.18 176.18,-176.18 c97.133,0 176.175,79.036 176.175,176.18 C365.40963697052,289.1975454978943 286.36763697052004,368.2275454978943 189.23563697052003,368.2275454978943 z" fill="#165b98" id="svg_5" fill-opacity="1"/> </g> </g><g id="svg_6"> </g><g id="svg_7"> </g><g id="svg_8"> </g><g id="svg_9"> </g><g id="svg_10"> </g><g id="svg_11"> </g><g id="svg_12"> </g><g id="svg_13"> </g><g id="svg_14"> </g><g id="svg_15"> </g><g id="svg_16"> </g><g id="svg_17"> </g><g id="svg_18"> </g><g id="svg_19"> </g><g id="svg_20"> </g></g></svg>