<?xml version="1.0" encoding="utf-8"?>
<!-- Generator: Adobe Illustrator 18.0.0, SVG Export Plug-In . SVG Version: 6.00 Build 0)  -->
<!DOCTYPE svg PUBLIC "-//W3C//DTD SVG 1.1//EN" "http://www.w3.org/Graphics/SVG/1.1/DTD/svg11.dtd" [
	<!ENTITY ns_flows "http://ns.adobe.com/Flows/1.0/">
	<!ENTITY ns_extend "http://ns.adobe.com/Extensibility/1.0/">
	<!ENTITY ns_ai "http://ns.adobe.com/AdobeIllustrator/10.0/">
	<!ENTITY ns_graphs "http://ns.adobe.com/Graphs/1.0/">
]>
<svg version="1.1" id="Layer_1" xmlns:x="&ns_extend;" xmlns:i="&ns_ai;" xmlns:graph="&ns_graphs;"
	 xmlns="http://www.w3.org/2000/svg" xmlns:xlink="http://www.w3.org/1999/xlink" xmlns:a="http://ns.adobe.com/AdobeSVGViewerExtensions/3.0/"
	 x="0px" y="0px" viewBox="0 0 2800 2800" enable-background="new 0 0 2800 2800" xml:space="preserve">
<g>
	<rect y="0" fill="#FFFFFF" width="2800" height="2800"/>
	<g>
		<g>
			<path fill-rule="evenodd" clip-rule="evenodd" fill="#B8E2E5" d="M1848.1,470.8c-493.7,40.6-1199.5,143.3-1504.4,597.2
				C193,1292.5,335,1599.9,406,1833.8c51.3,168.9,105.3,337.1,162.3,504.2c0,0,1638-6.8,1638-6.8c68.4-245,144.4-486.9,197-736.1
				c35.6-168.7,63.5-339.5,76.3-511.6c9.5-127.5,27.3-261-8.4-386.1c-31.4-110.1-105.5-152-210.7-183.1
				C2129.5,475.6,1984.5,465.3,1848.1,470.8z"/>
			<path fill-rule="evenodd" clip-rule="evenodd" fill="#9BCCD2" d="M2206.3,2331.2c39.4-141,81.2-281,119.7-421.9
				c-146.8-72.6-443.4-227.9-815.4-210.6c-554.6,25.9-902.5,155.5-1062.5,271.6c37.9,120.9,77.2,241.4,118,361.3
				c21.5,2.5,42.2,4.7,60.5,6.2C918.5,2336.6,2206.3,2331.2,2206.3,2331.2z"/>
		</g>
		<g>
			<g>
				<g>
					<g>
						<path fill="#EBF5F7" d="M468,1156.9c-20.1-52.4-86.3-92.4-163.7-95.4c-77.4-3-137.1,33.6-137.6,88.8
							C269.2,1154.8,369.4,1156.8,468,1156.9z"/>
					</g>
				</g>
				<g>
					<g>
						<path fill="#EBF5F7" d="M742.1,1152.1c0.2-3.9,0.5-7.8,0.3-11.7c-0.2-45.2-27.8-85-68.2-113.6c-40.9-28.5-94.6-45.8-158-46
							c-63.2,0-118,16.7-156.7,45.6c-38.3,28.8-60.6,69.8-50.5,116.6c0.7,4.1,1.9,8.1,3,12.1
							C458.7,1158.4,600.9,1156.9,742.1,1152.1z"/>
					</g>
				</g>
				<path fill="#D6EEF2" d="M467.9,1156.9c-18.1-46.7-72.2-83.3-138.8-93c-15.3,45.8-66.8,78.6-136.1,75.8
					c-8.3-0.4-16.6-1.4-24.8-2.7c-0.8,4.3-1.2,8.8-1.3,13.3C269.2,1154.8,369.4,1156.8,467.9,1156.9z"/>
				<path fill="#D6EEF2" d="M742.1,1152.1c0.2-3.9,0.5-7.8,0.3-11.7c-2.3-59.6-46.3-109.8-111.5-137.1
					c-7.1,39.6-30.5,75.2-66.9,100.8c-36.2,25.6-85.5,41.1-139.5,40.8c-41.1-0.3-81-9.7-117.2-25.9c-0.2,7.8,0.1,15.8,1.5,24
					c0.7,4.1,1.9,8.1,3,12.1C458.7,1158.4,600.9,1156.9,742.1,1152.1z"/>
				<g>
					<g>
						<path fill="#EBF5F7" d="M960.9,1142.2c-24.3-39.1-78.8-63.9-141.2-61.2c-62.5,2.8-115.5,32.1-137.9,72.9
							C774.9,1151.4,867.4,1147.5,960.9,1142.2z"/>
					</g>
				</g>
				<path fill="#D6EEF2" d="M961,1142.2c-12.6-20.1-33.1-36.5-58.7-47.2c-8.9,20.1-24.5,38.2-44.3,52.5
					C892.2,1145.9,926.5,1144.1,961,1142.2z"/>
			</g>
		</g>
		<g>
			<g>
				<g>
					<g>
						<path fill="#EBF5F7" d="M2054.9,1399.2c-20.1-52.4-86.3-92.4-163.7-95.4c-77.4-3-137.1,33.6-137.6,88.8
							C1856.1,1397.1,1956.3,1399.2,2054.9,1399.2z"/>
					</g>
				</g>
				<g>
					<g>
						<path fill="#EBF5F7" d="M2329,1394.5c0.2-3.9,0.5-7.8,0.3-11.7c-0.2-45.2-27.8-85-68.2-113.6c-40.9-28.5-94.6-45.8-158-46
							c-63.2,0-118,16.7-156.7,45.6c-38.3,28.8-60.6,69.8-50.5,116.6c0.7,4.1,1.9,8.1,3,12.1
							C2045.7,1400.8,2187.9,1399.3,2329,1394.5z"/>
					</g>
				</g>
				<path fill="#D6EEF2" d="M2054.8,1399.2c-18.1-46.7-72.2-83.3-138.8-93c-15.3,45.8-66.8,78.6-136.1,75.8
					c-8.3-0.4-16.6-1.4-24.8-2.7c-0.8,4.3-1.2,8.8-1.3,13.3C1856.2,1397.1,1956.3,1399.2,2054.8,1399.2z"/>
				<path fill="#D6EEF2" d="M2329,1394.5c0.2-3.9,0.5-7.8,0.3-11.7c-2.3-59.6-46.3-109.8-111.5-137.1
					c-7.1,39.6-30.5,75.2-66.9,100.8c-36.2,25.6-85.5,41.1-139.5,40.8c-41.1-0.3-81-9.7-117.2-25.9c-0.2,7.8,0.1,15.8,1.5,24
					c0.7,4.1,1.9,8.1,3,12.1C2045.7,1400.8,2187.9,1399.3,2329,1394.5z"/>
				<g>
					<g>
						<path fill="#EBF5F7" d="M2547.8,1384.6c-24.3-39.1-78.8-63.9-141.2-61.2c-62.5,2.8-115.5,32.1-137.9,72.9
							C2361.8,1393.8,2454.3,1389.9,2547.8,1384.6z"/>
					</g>
				</g>
				<path fill="#D6EEF2" d="M2547.9,1384.6c-12.6-20.1-33.1-36.5-58.7-47.2c-8.9,20.1-24.5,38.2-44.3,52.5
					C2479.1,1388.3,2513.4,1386.5,2547.9,1384.6z"/>
			</g>
		</g>
		<g>
			<g>
				<g>
					<path fill="#EBF5F7" d="M2144.4,681.8c0.1-1.6,0.3-3.2,0.3-4.8c0.1-37.1-57.1-64.6-125.3-60.7c-68.2,3.9-111.3,38.1-95.8,75.2
						c0.6,1.6,1.5,3.2,2.2,4.7C1997.4,689.8,2070.3,685.1,2144.4,681.8z"/>
				</g>
			</g>
			<path fill="#D6EEF2" d="M2144.4,681.8c0.1-1.6,0.3-3.2,0.3-4.8c-0.5-24.5-24.5-44.8-61.4-54.6c-5.3,32.9-48.2,60.2-102.4,64.4
				c-20.6,1.6-40.7-0.4-59.6-5c0.5,3.2,1.2,6.4,2.4,9.7c0.6,1.6,1.5,3.2,2.2,4.7C1997.4,689.8,2070.3,685.1,2144.4,681.8z"/>
			<g>
				<g>
					<path fill="#EBF5F7" d="M2260.3,677.7c-10.4-16.4-39-27.1-73.2-25.7c-34.2,1.4-62.8,14.2-74.2,31.3
						C2161.4,680.8,2210.5,679,2260.3,677.7z"/>
				</g>
			</g>
			<path fill="#D6EEF2" d="M2260.3,677.7c-5.4-8.5-15.6-15.4-28.9-19.9c-5.7,8.3-14.8,15.7-25.8,21.6
				C2223.7,678.7,2242,678.1,2260.3,677.7z"/>
		</g>
		<g>
			<path fill="#81981E" d="M1778.7,2083.1c14.6,2.2,28.1,7.3,40,14.6c0.1-0.7,0.1-1.4,0.2-2.1c4-26.2,28.4-44.1,54.6-40.1
				c13.4,2,24.6,9.5,31.9,19.8c22.2-30.5,60.2-47.9,100-41.8c5.7,0.9,11.3,2.2,16.6,4c14.5-64.5,76.7-107.7,143.1-97.6
				c67.3,10.3,114.1,71.6,107.2,138.6c0.1,0,0.1,0,0.2,0c30.7,4.7,53.2,29.7,56.2,59.2c0.7,0.1,1.4,0.2,2.2,0.3
				c72.8,11.1,122.8,79.1,111.6,151.9c-0.6,4.2-1.5,8.3-2.5,12.3l-168.2-25.7l-94.1-14.4l-162.1-24.8l-80.5-12.3l-67.2-10.3
				l-65.5-10l-147.9-22.6c0.2-2.8,0.5-5.5,0.9-8.3C1664.3,2114.7,1719.6,2074.1,1778.7,2083.1z"/>
			<path fill="#A2B31C" d="M1713.6,2095.1c11.9,1.8,22.9,5.9,32.6,11.9c0.1-0.6,0.1-1.1,0.2-1.7c3.3-21.3,23.1-35.9,44.4-32.7
				c10.9,1.7,20.1,7.7,26,16.1c18.1-24.8,49-39,81.4-34c4.7,0.7,9.2,1.8,13.5,3.2c11.8-52.5,62.4-87.7,116.5-79.4
				c54.8,8.4,92.9,58.3,87.3,112.8c0,0,0.1,0,0.1,0c25,3.8,43.3,24.1,45.7,48.2c0.6,0.1,1.2,0.1,1.8,0.2
				c59.3,9,99.9,64.4,90.9,123.7c-0.5,3.4-1.2,6.7-2,10l-137-20.9l-76.6-11.7l-132-20.2l-65.5-10l-54.7-8.3l-53.4-8.1l-120.4-18.4
				c0.2-2.2,0.4-4.5,0.7-6.7C1620.5,2120.8,1665.5,2087.7,1713.6,2095.1z"/>
		</g>
		<g>
			<path fill="#81981E" d="M956.2,2097.5c-14.6,2.4-28,7.7-39.8,15.1c-0.1-0.7-0.1-1.4-0.2-2.1c-4.3-26.1-29-43.7-55.1-39.4
				c-13.4,2.2-24.5,9.8-31.6,20.2c-22.6-30.2-60.8-47.1-100.5-40.5c-5.7,0.9-11.2,2.4-16.6,4.2c-15.4-64.3-78.1-106.7-144.3-95.7
				c-67.2,11.2-113.2,73.1-105.4,140c-0.1,0-0.1,0-0.2,0c-30.6,5.1-52.8,30.3-55.4,59.9c-0.7,0.1-1.4,0.2-2.2,0.3
				c-72.6,12.1-121.7,80.7-109.7,153.3c0.7,4.2,1.6,8.2,2.6,12.2l167.9-27.9l93.9-15.6l161.8-26.9l80.3-13.3l67-11.1l65.4-10.9
				l147.6-24.5c-0.2-2.7-0.6-5.5-1-8.3C1071,2127.6,1015.2,2087.7,956.2,2097.5z"/>
			<path fill="#A2B31C" d="M387,2186.4c14.2-3.1,28.4-3.2,41.9-0.7c-0.2-0.7-0.4-1.3-0.5-2c-5.6-25.5,10.6-50.6,36-56.2
				c13.1-2.9,26,0,36.3,6.9c9.6-35.9,38.4-65.2,77.2-73.7c5.6-1.2,11.1-1.9,16.7-2.2c-9.4-64.4,32.5-126.1,97.1-140.2
				c65.5-14.3,130.2,25.5,147.5,89.6c0.1,0,0.1,0,0.1,0c29.9-6.5,59.4,8.5,72.5,34.6c0.7-0.2,1.4-0.4,2.1-0.5
				c70.8-15.5,140.8,29.4,156.3,100.2c0.9,4.1,1.6,8.1,2,12.1L908.4,2190l-91.6,20l-157.8,34.5l-78.3,17.1l-65.4,14.3l-63.8,13.9
				l-143.9,31.4c-0.8-2.6-1.5-5.2-2.1-7.9C293,2255.8,329.5,2198.9,387,2186.4z"/>
		</g>
		<g>
			<ellipse fill-rule="evenodd" clip-rule="evenodd" fill="#8BA916" cx="1358.7" cy="2347.4" rx="1118" ry="207.9"/>
			<path fill-rule="evenodd" clip-rule="evenodd" fill="#A9C21F" d="M1358.7,2139.6c-349.9,0-662.2,29.9-867.2,76.7
				c-1.4,5.9-2.2,11.8-2.2,17.7c0,155.3,500.5,281.1,1118,281.1c283.5,0,542.4-26.5,739.4-70.3c83-29,130-62.2,130-97.4
				C2476.7,2232.6,1976.2,2139.6,1358.7,2139.6z"/>
		</g>
		<ellipse fill-rule="evenodd" clip-rule="evenodd" fill="#8CA816" cx="1392.1" cy="2363.3" rx="680" ry="84"/>
		<g>
			<g>
				<path fill="#E7CBBD" d="M1257.4,1587.2c-17.9,0-32.5,14.5-32.5,32.5v75.7h64.9v-75.7C1289.9,1601.7,1275.3,1587.2,1257.4,1587.2
					z"/>
				<path fill="#E7CBBD" d="M1456.5,1587.2c-17.9,0-32.5,14.5-32.5,32.5v75.7h64.9v-75.7C1489,1601.7,1474.5,1587.2,1456.5,1587.2z"
					/>
				<path fill="#5E3020" d="M1404.3,1311.1h-94.6c-28.9,0-52.3,23.4-52.3,52.3v79.3h199.1v-79.3
					C1456.5,1334.5,1433.1,1311.1,1404.3,1311.1z"/>
				<rect x="1257.4" y="1587.2" fill="#F9F6EF" width="199.1" height="262.4"/>
				<path fill="#F7B58B" d="M1322.7,1544.5v47.8c0,19.1,15.5,34.5,34.5,34.5l0,0c19.1,0,34.5-15.5,34.5-34.5v-47.8H1322.7z"/>
				<path fill="#EB7E63" d="M1322.7,1580.3c10.5,4.4,22.1,6.9,34.3,6.9h0c12.3,0,24.1-2.5,34.8-7.1v-35.7h-69.1V1580.3z"/>
				<path fill="#F7B58B" d="M1410.3,1349.8h-106.7c-19.7,0-35.6,15.9-35.6,35.6v97.3c0,49.1,39.8,88.9,88.9,88.9h0
					c49.1,0,88.9-39.8,88.9-88.9v-97.3C1445.9,1365.7,1429.9,1349.8,1410.3,1349.8z"/>
				<path fill="#F7B58B" d="M1283.2,1427c-0.9-2.9-7-4.9-9.4-5.4c-18.9-3.8-29.3,15.3-22.7,31.2c3.8,9,16.2,27.8,28.5,22.6
					C1295.6,1468.8,1283.3,1427.2,1283.2,1427z"/>
				<path fill="#F7B58B" d="M1431.2,1427c0.9-2.9,7-4.9,9.4-5.4c18.9-3.8,29.3,15.3,22.7,31.2c-3.8,9-16.2,27.8-28.5,22.6
					C1418.8,1468.8,1431.1,1427.2,1431.2,1427z"/>
				<circle fill="#40231B" cx="1311.1" cy="1440.6" r="7"/>
				<circle fill="#40231B" cx="1405" cy="1440.6" r="7"/>
				<path fill="#5E3020" d="M1323.5,1417.4c-7.6-4.5-17.1-4.5-24.8,0c-1.6,0.9-3.7,0.9-4.8-0.5l0,0c-1.1-1.3-0.5-3.7,1.6-5
					c9.6-5.7,21.6-5.7,31.2,0c2.1,1.2,2.8,3.6,1.6,5c0,0,0,0,0,0C1327.2,1418.2,1325.1,1418.3,1323.5,1417.4z"/>
				<path fill="#5E3020" d="M1417.4,1417.4c-7.6-4.5-17.1-4.5-24.8,0c-1.6,0.9-3.7,0.9-4.8-0.5l0,0c-1.1-1.3-0.5-3.7,1.6-5
					c9.6-5.7,21.6-5.7,31.2,0c2.1,1.2,2.8,3.6,1.6,5c0,0,0,0,0,0C1421.1,1418.2,1419,1418.3,1417.4,1417.4z"/>
				<path fill="#EB7E63" d="M1360.9,1445.7c-1.2-3.9-6.8-3.9-8,0c-4.2,13.7-10,34.4-8.5,39.7c2.3,8.2,12.5,7.6,12.5,7.6
					s10.2,0.6,12.5-7.6C1371,1480.1,1365.2,1459.3,1360.9,1445.7z"/>
				<path fill="#FFFFFF" d="M1387.5,1506H1327c-4.7,0-8.3,4.4-7.2,9c4,16.9,19.3,29.5,37.4,29.5c18.2,0,33.4-12.6,37.4-29.5
					C1395.7,1510.4,1392.2,1506,1387.5,1506z"/>
				<path fill="#5E3020" d="M1268,1421.2c0,0,3.2-47.8,34.2-54.5c0,0,8.9,19.4,29.7,27.3c20.9,7.8,33.7,3.9,33.7,24.1
					c0,0,47.7-20,16.4-51.3c0,0,63.7-7,63.7,54.5l6.5-10.6c0,0,11.1-79-60.6-72.8s-110.3-4.9-127.2,34.6
					C1264.6,1372.4,1258.2,1405.1,1268,1421.2z"/>
				<g>
					<path fill="#E7CBBD" d="M1357,1254.9c-56,0-88.9,21-88.9,21l25.3,69.9c0,0,61.3,6.3,127.2,0l25.3-69.9
						C1445.9,1275.8,1413,1254.9,1357,1254.9z"/>
					<path fill="#F9F6EF" d="M1426.9,1278.7c0-4.3-0.7-8.5-2.1-12.5c-15.2-5.5-38.4-11.3-67.9-11.3c-56,0-88.9,21-88.9,21l17.2,47.4
						c14.9,7.9,33.9,12.6,54.6,12.6C1387.9,1335.8,1426.9,1310.2,1426.9,1278.7z"/>
				</g>
				<rect x="1210.8" y="1695.4" fill="#F9F6EF" width="46.6" height="28.7"/>
				<rect x="1456.5" y="1695.4" fill="#F9F6EF" width="46.6" height="28.7"/>
				<rect x="1283.4" y="1585.7" fill="#F75C31" width="25.3" height="83.7"/>
				<rect x="1406" y="1585.7" fill="#F75C31" width="25.3" height="83.7"/>
				<polygon fill="#F75C31" points="1435.7,1669.3 1357.2,1669.3 1278.8,1669.3 1257.4,1849.6 1357.2,1849.6 1457.1,1849.6 				"/>
				<g>
					<rect x="1224.9" y="1724.1" fill="#F7B58B" width="32.5" height="125.5"/>
					<rect x="1224.9" y="1724.1" fill="#EB7E63" width="32.5" height="15.7"/>
				</g>
				<g>
					<rect x="1457.1" y="1724.1" fill="#F7B58B" width="32.5" height="125.5"/>
					<rect x="1457.1" y="1724.1" fill="#EB7E63" width="32.5" height="15.7"/>
				</g>
				<path fill="#C83E24" d="M1316.4,1718.4v18c0,16.7,13.6,30.3,30.3,30.3h21.1c16.7,0,30.3-13.6,30.3-30.3v-18H1316.4z"/>
				<rect x="1283.4" y="1660.9" fill="#C83E24" width="25.3" height="8.4"/>
				<rect x="1406" y="1660.9" fill="#C83E24" width="25.3" height="8.4"/>
			</g>
			<g>
				<g>
					<polygon fill-rule="evenodd" clip-rule="evenodd" fill="#9A4337" points="822.9,1797.2 1930,1797.2 1930,2363 822.9,2363 
						822.9,1797.2 					"/>
					<rect x="822.9" y="1808" fill-rule="evenodd" clip-rule="evenodd" fill="#DB7453" width="211.4" height="546.2"/>
					<rect x="1045" y="1808" fill-rule="evenodd" clip-rule="evenodd" fill="#DB7453" width="211.4" height="546.2"/>
					<polygon fill-rule="evenodd" clip-rule="evenodd" fill="#DB7453" points="1267.4,1808 1478.8,1808 1478.8,2354.2 
						1267.4,2354.2 1267.4,1808 					"/>
					<polygon fill-rule="evenodd" clip-rule="evenodd" fill="#DB7453" points="1491.4,1808 1702.7,1808 1702.7,2354.2 
						1491.4,2354.2 1491.4,1808 					"/>
					<polygon fill-rule="evenodd" clip-rule="evenodd" fill="#DB7453" points="1713.8,1808 1925.2,1808 1925.2,2354.2 
						1713.8,2354.2 1713.8,1808 					"/>
					<g>
						<rect x="822.7" y="1854.2" fill="#FFFFFF" width="0.2" height="86.4"/>
						<rect x="1478.8" y="1854.2" fill-rule="evenodd" clip-rule="evenodd" fill="#83342E" width="12.6" height="86.4"/>
						<rect x="1256.3" y="1854.2" fill-rule="evenodd" clip-rule="evenodd" fill="#83342E" width="11.1" height="86.4"/>
						<rect x="1925.2" y="1854.2" fill-rule="evenodd" clip-rule="evenodd" fill="#83342E" width="0.1" height="86.4"/>
						<rect x="1702.7" y="1854.2" fill-rule="evenodd" clip-rule="evenodd" fill="#83342E" width="11.1" height="86.4"/>
						<rect x="1034.2" y="1854.2" fill-rule="evenodd" clip-rule="evenodd" fill="#83342E" width="10.7" height="86.4"/>
						<rect x="822.9" y="1854.2" fill-rule="evenodd" clip-rule="evenodd" fill="#B5533C" width="211.4" height="86.4"/>
						<rect x="1045" y="1854.2" fill-rule="evenodd" clip-rule="evenodd" fill="#B5533C" width="211.4" height="86.4"/>
						<rect x="1267.4" y="1854.2" fill-rule="evenodd" clip-rule="evenodd" fill="#B5533C" width="211.4" height="86.4"/>
						<rect x="1491.4" y="1854.2" fill-rule="evenodd" clip-rule="evenodd" fill="#B5533C" width="211.4" height="86.4"/>
						<rect x="1713.8" y="1854.2" fill-rule="evenodd" clip-rule="evenodd" fill="#B5533C" width="211.4" height="86.4"/>
					</g>
				</g>
				<path fill-rule="evenodd" clip-rule="evenodd" fill="#9A4337" d="M839.9,2333.5c4.3,0,7.8,2.9,7.8,6.4s-3.5,6.4-7.8,6.4
					c-4.3,0-7.8-2.9-7.8-6.4S835.6,2333.5,839.9,2333.5L839.9,2333.5z"/>
				<path fill-rule="evenodd" clip-rule="evenodd" fill="#9A4337" d="M1015.2,2333.5c4.3,0,7.8,2.9,7.8,6.4s-3.5,6.4-7.8,6.4
					c-4.3,0-7.8-2.9-7.8-6.4S1010.9,2333.5,1015.2,2333.5L1015.2,2333.5z"/>
				<path fill-rule="evenodd" clip-rule="evenodd" fill="#9A4337" d="M1063.8,2333.5c4.3,0,7.8,2.9,7.8,6.4s-3.5,6.4-7.8,6.4
					c-4.3,0-7.8-2.9-7.8-6.4S1059.5,2333.5,1063.8,2333.5L1063.8,2333.5z"/>
				<path fill-rule="evenodd" clip-rule="evenodd" fill="#9A4337" d="M1239.2,2333.5c4.3,0,7.8,2.9,7.8,6.4s-3.5,6.4-7.8,6.4
					c-4.3,0-7.8-2.9-7.8-6.4S1234.9,2333.5,1239.2,2333.5L1239.2,2333.5z"/>
				<path fill-rule="evenodd" clip-rule="evenodd" fill="#9A4337" d="M1286.3,2333.5c4.3,0,7.8,2.9,7.8,6.4s-3.5,6.4-7.8,6.4
					c-4.3,0-7.8-2.9-7.8-6.4S1282,2333.5,1286.3,2333.5L1286.3,2333.5z"/>
				<path fill-rule="evenodd" clip-rule="evenodd" fill="#9A4337" d="M1461.6,2333.5c4.3,0,7.8,2.9,7.8,6.4s-3.5,6.4-7.8,6.4
					c-4.3,0-7.8-2.9-7.8-6.4S1457.3,2333.5,1461.6,2333.5L1461.6,2333.5z"/>
				<path fill-rule="evenodd" clip-rule="evenodd" fill="#9A4337" d="M1510.2,2333.5c4.3,0,7.8,2.9,7.8,6.4s-3.5,6.4-7.8,6.4
					c-4.3,0-7.8-2.9-7.8-6.4S1506,2333.5,1510.2,2333.5L1510.2,2333.5z"/>
				<path fill-rule="evenodd" clip-rule="evenodd" fill="#9A4337" d="M1685.6,2333.5c4.3,0,7.8,2.9,7.8,6.4s-3.5,6.4-7.8,6.4
					s-7.8-2.9-7.8-6.4S1681.3,2333.5,1685.6,2333.5L1685.6,2333.5z"/>
				<path fill-rule="evenodd" clip-rule="evenodd" fill="#9A4337" d="M1735.7,2333.5c4.3,0,7.8,2.9,7.8,6.4s-3.5,6.4-7.8,6.4
					c-4.3,0-7.8-2.9-7.8-6.4S1731.4,2333.5,1735.7,2333.5L1735.7,2333.5z"/>
				<path fill-rule="evenodd" clip-rule="evenodd" fill="#9A4337" d="M1911.1,2333.5c4.3,0,7.8,2.9,7.8,6.4s-3.5,6.4-7.8,6.4
					c-4.3,0-7.8-2.9-7.8-6.4S1906.8,2333.5,1911.1,2333.5L1911.1,2333.5z"/>
			</g>
			<polygon fill-rule="evenodd" clip-rule="evenodd" fill="#9A4337" points="879,1768.7 1864.1,1768.7 2000.5,1811.6 729.3,1811.6 
				879,1768.7 			"/>
			<polygon fill-rule="evenodd" clip-rule="evenodd" fill="#DB7453" points="729.3,1811.6 2000.5,1811.6 2000.5,1828.8 
				729.3,1828.8 729.3,1811.6 			"/>
			<g>
				<ellipse fill-rule="evenodd" clip-rule="evenodd" fill="#B5533C" cx="1387.7" cy="2091.4" rx="321.1" ry="144.7"/>
				<ellipse fill-rule="evenodd" clip-rule="evenodd" fill="#F9E6C4" cx="1376.3" cy="2083.4" rx="321.1" ry="144.7"/>
				<g>
					<path fill="#C83E24" d="M1212.4,2102.1c0,9.4-5.1,16.5-15.4,21.4c-10.1,4.7-24.7,7.1-43.9,7.1c-3,0-5.4-0.7-7.3-2
						c-2.3-1.6-3.4-4.1-3.4-7.5v-68.5c0-5.9,3.2-8.8,9.4-8.8h21.6c6.5,0,12.1,1.1,16.9,3.2c3.9,1.7,7.2,4.2,9.7,7.3
						c2,2.4,3.5,5.1,4.4,8.1c0.7,2.2,1.1,4.1,1.1,5.8c0,5.3-1.4,10-4.2,14.1C1208.6,2086.6,1212.4,2093.2,1212.4,2102.1
						L1212.4,2102.1z M1161.4,2094.4v16.8c21.4-0.8,32-3.9,32-9.5c0-2.2-1.4-4-4.1-5.3c-2.6-1.3-5.8-1.9-9.7-1.9H1161.4
						L1161.4,2094.4z M1161.4,2062.8v12.5h17.1c5.3,0,8-2.2,8-6.7l-0.1-0.3c0-0.3,0-0.5-0.1-0.7c-0.2-0.7-0.7-1.4-1.4-2
						c-2.1-1.9-5.9-2.8-11.5-2.8H1161.4L1161.4,2062.8z M1286.1,2043.7c3.4,0,6,1.2,7.7,3.5c0.6,0.8,1,1.8,1.4,2.9
						c0.2,0.8,0.3,1.6,0.3,2.3l0.4,10.1c0.1,3.7,0.1,6.9,0.1,9.7c0,4-0.1,7.9-0.3,11.5c-0.2,4.1-0.6,8.1-1.2,12.1
						c-1.5,10.6-5.3,18.9-11.3,24.8c-6.7,6.5-15.9,9.8-27.5,9.8c-11.5,0-20.7-4.4-27.4-13.3c-6.3-8.3-9.7-19.3-10.2-33
						c-0.1-4.5-0.2-9-0.2-13.6l0.2-18.2c0-1.9,0.7-3.7,2.2-5.3c1.8-2.1,4.4-3.2,7.6-3.2c3.3,0,5.8,1.1,7.5,3.3
						c1.2,1.6,1.8,3.4,1.8,5.3c0,3.2-0.1,6-0.1,8.1c0,2.7-0.1,5.3-0.1,7.6c0,4.4,0.1,8.9,0.2,13.4c0.4,9.4,1.9,16.7,4.6,21.9
						c3.2,6,7.9,8.9,14.2,8.9c5.1,0,9.3-1.3,12.5-3.9c3.9-3.2,6.2-8.2,7.1-15c0.5-3.6,0.8-7.3,0.9-11.2c0.1-3.2,0.2-6.9,0.2-11.1
						l-0.1-18.6c0-1.9,0.6-3.7,1.8-5.3C1280.1,2044.9,1282.7,2043.7,1286.1,2043.7L1286.1,2043.7z M1353.5,2095.4
						c3.3,2.8,6.4,5.9,9.2,9.2c3.5,4,6.4,8.3,8.9,12.9c0.7,1.2,1,2.6,1,4.1c0,5.8-3.1,8.7-9.4,8.7c-3.6,0-6.3-1.4-8.3-4.3
						c-3.4-5.1-6.7-9.4-10-12.8c-2.7-2.8-5.3-5-7.9-6.6c-2-1.2-3.9-2-5.8-2.4c-0.7-0.1-1.4-0.2-2.1-0.3l-1.5-0.1
						c-1.6,0-3.4,0.1-5.3,0.3v17.7c0,5.6-3.1,8.4-9.4,8.4c-6.3,0-9.4-2.9-9.4-8.7V2053c0-4.2,1.4-7,4.1-8.4
						c2.2-1.1,6.3-1.7,12.2-1.7h2.2c14.7,0,26.3,2.4,34.6,7.3c8.7,5,13,12.2,13,21.5c0,5.4-1.6,10.3-4.8,14.5
						C1362.2,2089.8,1358.4,2092.8,1353.5,2095.4L1353.5,2095.4z M1350.9,2072c0-3.3-2.2-5.8-6.7-7.8c-5-2.2-12.2-3.3-21.8-3.3v24.7
						c8-0.8,14.7-2.4,20-4.8C1348,2078.3,1350.9,2075.4,1350.9,2072L1350.9,2072z M1443.7,2086.2c5.2,0,10.2,0.7,15,2.2
						c4.2,1.2,6.3,4,6.3,8.4c0,4.3-2.2,7.2-6.7,8.4c-2.9,7.5-7.5,13.6-14,18.1c-6.9,4.8-15.1,7.2-24.4,7.2
						c-12.4,0-22.6-4.4-30.7-13.2c-7.4-8.2-11.2-17.9-11.2-29.2c0-11.2,3.9-21.3,11.7-30.1c4-4.5,8.6-7.9,13.8-10.4
						c5.7-2.7,11.8-4,18.3-4c6.1,0,11.8,1.1,16.9,3.4c4.4,1.9,8.3,4.6,11.6,8.1c2.8,2.9,5,6,6.6,9.4c1.5,3,2.2,5.5,2.2,7.6
						c0,6-3.1,9-9.3,9c-4.4,0-7.4-2-9-6.1c-1.3-3.6-3.3-6.4-6-8.5c-3.3-2.6-7.7-3.9-13-3.9c-4.2,0-8,1-11.4,2.8
						c-2.9,1.7-5.5,3.9-7.7,6.8c-3.8,5.1-5.7,10.4-5.7,15.8c0,5.9,1.9,11.1,5.7,15.6c4.3,5.2,10,7.8,17.1,7.8c7.8,0,13.8-2.7,17.8-8
						l-7.3,1.4c-0.7,0.1-1.5,0.2-2.2,0.2c-6.3,0-9.4-2.8-9.4-8.5c0-3.9,2.1-6.6,6.4-8.1C1429,2086.9,1435.1,2086.2,1443.7,2086.2
						L1443.7,2086.2z M1491.8,2111.2h41.1c6.2,0,9.4,3.2,9.4,9.5c0,6.4-3.1,9.6-9.4,9.6h-50.4c-6.4,0-9.6-3-9.6-8.9v-69
						c0-5.9,3.2-8.9,9.6-8.9h50.7c6.3,0,9.4,3.2,9.4,9.6c0,6.3-3.1,9.5-9.4,9.5h-41.3v13.5h35.5c6.2,0,9.4,3.1,9.4,9.4
						c0,6.4-3.1,9.6-9.4,9.6h-35.5V2111.2L1491.8,2111.2z M1599.2,2095.4c3.3,2.8,6.4,5.9,9.2,9.2c3.5,4,6.4,8.3,8.9,12.9
						c0.7,1.2,1,2.6,1,4.1c0,5.8-3.1,8.7-9.4,8.7c-3.6,0-6.3-1.4-8.3-4.3c-3.4-5.1-6.7-9.4-10-12.8c-2.7-2.8-5.3-5-7.9-6.6
						c-2-1.2-3.9-2-5.8-2.4c-0.7-0.1-1.4-0.2-2.1-0.3l-1.5-0.1c-1.6,0-3.4,0.1-5.3,0.3v17.7c0,5.6-3.1,8.4-9.4,8.4
						c-6.3,0-9.4-2.9-9.4-8.7V2053c0-4.2,1.4-7,4.1-8.4c2.2-1.1,6.3-1.7,12.2-1.7h2.2c14.7,0,26.3,2.4,34.6,7.3
						c8.7,5,13,12.2,13,21.5c0,5.4-1.6,10.3-4.8,14.5C1607.9,2089.8,1604,2092.8,1599.2,2095.4L1599.2,2095.4z M1596.5,2072
						c0-3.3-2.2-5.8-6.7-7.8c-5-2.2-12.2-3.3-21.8-3.3v24.7c8-0.8,14.7-2.4,20-4.8C1593.7,2078.3,1596.5,2075.4,1596.5,2072
						L1596.5,2072z"/>
					<path fill="#F75C31" d="M1208.4,2098.8c0,9.4-5.1,16.5-15.4,21.4c-10.1,4.7-24.7,7.1-43.9,7.1c-3,0-5.4-0.7-7.3-2
						c-2.3-1.6-3.4-4.1-3.4-7.5v-68.5c0-5.9,3.2-8.8,9.4-8.8h21.6c6.5,0,12.1,1.1,16.9,3.2c3.9,1.7,7.2,4.2,9.7,7.3
						c2,2.4,3.5,5.1,4.4,8.1c0.7,2.2,1.1,4.1,1.1,5.8c0,5.3-1.4,10-4.2,14.1C1204.6,2083.2,1208.4,2089.9,1208.4,2098.8
						L1208.4,2098.8z M1157.4,2091.1v16.8c21.4-0.8,32-3.9,32-9.5c0-2.2-1.4-4-4.1-5.3c-2.6-1.3-5.8-1.9-9.7-1.9H1157.4
						L1157.4,2091.1z M1157.4,2059.5v12.5h17.1c5.3,0,8-2.2,8-6.7l-0.1-0.3c0-0.3,0-0.5-0.1-0.7c-0.2-0.7-0.7-1.4-1.4-2
						c-2.1-1.9-5.9-2.8-11.5-2.8H1157.4L1157.4,2059.5z M1282.1,2040.4c3.4,0,6,1.2,7.7,3.5c0.6,0.8,1,1.8,1.4,2.9
						c0.2,0.8,0.3,1.6,0.3,2.3l0.4,10.1c0.1,3.7,0.1,6.9,0.1,9.7c0,4-0.1,7.9-0.3,11.5c-0.2,4.1-0.6,8.1-1.2,12.1
						c-1.5,10.6-5.3,18.9-11.3,24.8c-6.7,6.5-15.9,9.8-27.5,9.8c-11.5,0-20.7-4.4-27.4-13.3c-6.3-8.3-9.7-19.3-10.2-33
						c-0.1-4.5-0.2-9-0.2-13.6l0.2-18.2c0-1.9,0.7-3.7,2.2-5.3c1.8-2.1,4.4-3.2,7.6-3.2c3.3,0,5.8,1.1,7.5,3.3
						c1.2,1.6,1.8,3.4,1.8,5.3c0,3.2-0.1,6-0.1,8.1c0,2.7-0.1,5.3-0.1,7.6c0,4.4,0.1,8.9,0.2,13.4c0.4,9.4,1.9,16.7,4.6,21.9
						c3.2,6,7.9,8.9,14.2,8.9c5.1,0,9.3-1.3,12.5-3.9c3.9-3.2,6.2-8.2,7.1-15c0.5-3.6,0.8-7.4,0.9-11.2c0.1-3.2,0.2-6.9,0.2-11.1
						l-0.1-18.6c0-1.9,0.6-3.7,1.8-5.3C1276.1,2041.5,1278.7,2040.4,1282.1,2040.4L1282.1,2040.4z M1349.5,2092.1
						c3.3,2.8,6.4,5.9,9.2,9.2c3.5,4,6.4,8.3,8.9,12.9c0.7,1.2,1,2.6,1,4.1c0,5.8-3.1,8.7-9.4,8.7c-3.6,0-6.3-1.4-8.3-4.3
						c-3.4-5.1-6.7-9.4-10-12.8c-2.7-2.8-5.3-5-7.9-6.6c-2-1.2-3.9-2-5.8-2.4c-0.7-0.1-1.4-0.2-2.1-0.3l-1.5-0.1
						c-1.6,0-3.4,0.1-5.3,0.3v17.7c0,5.6-3.1,8.4-9.4,8.4c-6.3,0-9.4-2.9-9.4-8.7v-68.5c0-4.2,1.4-7,4.1-8.4
						c2.2-1.1,6.3-1.7,12.2-1.7h2.2c14.7,0,26.3,2.4,34.6,7.3c8.7,5,13,12.2,13,21.5c0,5.4-1.6,10.3-4.8,14.5
						C1358.2,2086.4,1354.4,2089.5,1349.5,2092.1L1349.5,2092.1z M1346.9,2068.7c0-3.3-2.2-5.8-6.7-7.8c-5-2.2-12.2-3.3-21.8-3.3
						v24.7c8-0.8,14.7-2.4,20-4.8C1344,2075,1346.9,2072,1346.9,2068.7L1346.9,2068.7z M1439.7,2082.8c5.2,0,10.2,0.7,15,2.2
						c4.2,1.2,6.3,4,6.3,8.4c0,4.3-2.2,7.2-6.7,8.4c-2.9,7.5-7.5,13.6-14,18.1c-6.9,4.8-15.1,7.2-24.4,7.2
						c-12.4,0-22.6-4.4-30.7-13.2c-7.4-8.2-11.2-17.9-11.2-29.2c0-11.2,3.9-21.3,11.7-30.1c4-4.5,8.6-7.9,13.8-10.4
						c5.7-2.7,11.8-4,18.3-4c6.1,0,11.8,1.1,16.9,3.4c4.4,1.9,8.3,4.6,11.6,8.1c2.8,2.9,5,6,6.6,9.4c1.5,3,2.2,5.5,2.2,7.6
						c0,6-3.1,9-9.3,9c-4.4,0-7.4-2-9-6.1c-1.3-3.6-3.3-6.4-6-8.5c-3.3-2.6-7.7-3.9-13-3.9c-4.2,0-8,1-11.4,2.8
						c-2.9,1.7-5.5,3.9-7.7,6.8c-3.8,5.1-5.7,10.4-5.7,15.8c0,5.9,1.9,11.1,5.7,15.6c4.3,5.2,10,7.8,17.1,7.8c7.8,0,13.8-2.7,17.8-8
						l-7.3,1.4c-0.7,0.1-1.5,0.2-2.2,0.2c-6.3,0-9.4-2.8-9.4-8.5c0-3.9,2.1-6.6,6.4-8.1C1425,2083.6,1431.1,2082.8,1439.7,2082.8
						L1439.7,2082.8z M1487.8,2107.9h41.1c6.2,0,9.4,3.2,9.4,9.5c0,6.4-3.1,9.6-9.4,9.6h-50.4c-6.4,0-9.6-3-9.6-8.9v-69
						c0-5.9,3.2-8.9,9.6-8.9h50.7c6.3,0,9.4,3.2,9.4,9.6c0,6.3-3.1,9.5-9.4,9.5h-41.3v13.5h35.5c6.2,0,9.4,3.1,9.4,9.4
						c0,6.4-3.1,9.6-9.4,9.6h-35.5V2107.9L1487.8,2107.9z M1595.2,2092.1c3.3,2.8,6.4,5.9,9.2,9.2c3.5,4,6.4,8.3,8.9,12.9
						c0.7,1.2,1,2.6,1,4.1c0,5.8-3.1,8.7-9.4,8.7c-3.6,0-6.3-1.4-8.3-4.3c-3.4-5.1-6.7-9.4-10-12.8c-2.7-2.8-5.3-5-7.9-6.6
						c-2-1.2-3.9-2-5.8-2.4c-0.7-0.1-1.4-0.2-2.1-0.3l-1.5-0.1c-1.6,0-3.4,0.1-5.3,0.3v17.7c0,5.6-3.1,8.4-9.4,8.4
						c-6.3,0-9.4-2.9-9.4-8.7v-68.5c0-4.2,1.4-7,4.1-8.4c2.2-1.1,6.3-1.7,12.2-1.7h2.2c14.7,0,26.3,2.4,34.6,7.3
						c8.7,5,13,12.2,13,21.5c0,5.4-1.6,10.3-4.8,14.5C1603.9,2086.4,1600,2089.5,1595.2,2092.1L1595.2,2092.1z M1592.5,2068.7
						c0-3.3-2.2-5.8-6.7-7.8c-5-2.2-12.2-3.3-21.8-3.3v24.7c8-0.8,14.7-2.4,20-4.8C1589.7,2075,1592.5,2072,1592.5,2068.7
						L1592.5,2068.7z"/>
				</g>
			</g>
			<g>
				<polygon fill-rule="evenodd" clip-rule="evenodd" fill="#A73A2B" points="1950.3,1797.2 1909.9,1797.2 1909.9,1157.4 
					1950.3,1157.4 1950.3,1797.2 				"/>
				<path fill-rule="evenodd" clip-rule="evenodd" fill="#762D26" d="M1909.9,1339.1l40.4,29.5v-133c-2-5.4-3.7-8.3-4.8-7.7
					c-3.3,1.9-18.9,8.8-35.6,16V1339.1z"/>
			</g>
			<g>
				<polygon fill-rule="evenodd" clip-rule="evenodd" fill="#A73A2B" points="850.9,1797.2 810.5,1797.2 810.5,1157.4 850.9,1157.4 
					850.9,1797.2 				"/>
				<path fill-rule="evenodd" clip-rule="evenodd" fill="#762D26" d="M810.5,1339.1l40.4,29.5v-133c-2-5.4-3.7-8.3-4.8-7.7
					c-3.3,1.9-18.9,8.8-35.6,16V1339.1z"/>
			</g>
			<g>
				<polygon fill-rule="evenodd" clip-rule="evenodd" fill="#A73A2B" points="920.4,1781.2 885.8,1781.2 885.8,1178.4 920.4,1178.4 
					920.4,1781.2 				"/>
				<path fill-rule="evenodd" clip-rule="evenodd" fill="#762D26" d="M885.8,1333.7l34.5,25.2v-113.6c-1.8-4.6-3.2-7.1-4.1-6.6
					c-2.9,1.6-16.1,7.5-30.4,13.6V1333.7z"/>
			</g>
			<g>
				<polygon fill-rule="evenodd" clip-rule="evenodd" fill="#A73A2B" points="1865.4,1781.2 1830.8,1781.2 1830.8,1178.4 
					1865.4,1178.4 1865.4,1781.2 				"/>
				<path fill-rule="evenodd" clip-rule="evenodd" fill="#762D26" d="M1830.8,1333.7l34.5,25.2v-113.6c-1.8-4.6-3.2-7.1-4.1-6.6
					c-2.9,1.6-16.1,7.5-30.4,13.6V1333.7z"/>
			</g>
			<g>
				<polygon fill-rule="evenodd" clip-rule="evenodd" fill="#F75C31" points="1893.5,1163.7 842.5,1163.7 842.5,1091 707.8,1091 
					842.5,915.4 1893.5,915.4 2028.2,1091 1893.5,1091 1893.5,1163.7 				"/>
				<g>
					<polygon fill="#F9E6C4" points="872.8,1091 1037.1,1091 1097.7,957.9 947.8,945.6 					"/>
					<polygon fill="#F9E6C4" points="1473.1,957.9 1533.7,1091 1698,1091 1623.1,945.6 					"/>
					<rect x="1204" y="982.7" fill="#F9E6C4" width="163.8" height="108.3"/>
					<polygon fill="#F9E6C4" points="1977.4,1024.8 1788,974.5 1862.9,1091 2028.2,1091 					"/>
					<g>
						<polygon fill-rule="evenodd" clip-rule="evenodd" fill="#C63E1E" points="1655.5,1008.5 1672.3,1041.2 1830.8,1041.2 
							1809.8,1008.5 						"/>
						<polygon fill-rule="evenodd" clip-rule="evenodd" fill="#C63E1E" points="1074.7,1008.5 1059.9,1041.2 1204,1041.2 
							1204,1008.5 						"/>
						<polygon fill-rule="evenodd" clip-rule="evenodd" fill="#C63E1E" points="1367.8,1008.5 1367.8,1041.2 1511,1041.2 
							1496.1,1008.5 						"/>
						<polygon fill-rule="evenodd" clip-rule="evenodd" fill="#C63E1E" points="915.4,1008.5 771.1,1008.5 746.1,1041.2 
							898.5,1041.2 						"/>
						<polygon fill="#D5B395" points="915.4,1008.5 898.5,1041.2 1059.9,1041.2 1074.7,1008.5 						"/>
						<polygon fill="#D5B395" points="1496.1,1008.5 1511,1041.2 1672.3,1041.2 1655.5,1008.5 						"/>
						<rect x="1204" y="1008.5" fill="#D5B395" width="163.8" height="32.7"/>
						<polygon fill="#D5B395" points="1964.8,1008.5 1915.9,1008.5 1809.8,1008.5 1830.8,1041.2 1989.9,1041.2 1989.9,1041.2 						
							"/>
					</g>
				</g>
				<path fill-rule="evenodd" clip-rule="evenodd" fill="#C83E24" d="M707.8,1091h1320.4v153.2c0,33.9-36.9,61.4-82.5,61.4
					c-45.6,0-82.5-27.5-82.5-61.4c0,33.9-36.9,61.4-82.5,61.4c-45.6,0-82.5-27.5-82.5-61.4c0,33.9-36.9,61.4-82.5,61.4
					c-45.6,0-82.5-27.5-82.5-61.4c0,33.9-36.9,61.4-82.5,61.4c-45.6,0-82.5-27.5-82.5-61.4c0,33.9-36.9,61.4-82.5,61.4
					c-45.6,0-82.5-27.5-82.5-61.4c0,33.9-36.9,61.4-82.5,61.4c-45.6,0-82.5-27.5-82.5-61.4c0,33.9-36.9,61.4-82.5,61.4
					c-45.6,0-82.5-27.5-82.5-61.4c0,33.9-36.9,61.4-82.5,61.4c-45.6,0-82.5-27.5-82.5-61.4V1091L707.8,1091z"/>
				<rect x="783.7" y="849.9" fill-rule="evenodd" clip-rule="evenodd" fill="#DB7453" width="1168.3" height="146.1"/>
				<rect x="783.7" y="845" fill-rule="evenodd" clip-rule="evenodd" fill="#9A4337" width="1168.3" height="9.9"/>
				<polygon fill-rule="evenodd" clip-rule="evenodd" fill="#9A4337" points="759.3,982.7 1977.4,982.7 1977.4,1015.5 759.3,1015.5 
					759.3,982.7 				"/>
				<polygon fill-rule="evenodd" clip-rule="evenodd" fill="#B74E39" points="759.3,992.1 1977.4,992.1 1977.4,1024.8 759.3,1024.8 
					759.3,992.1 				"/>
				<rect x="783.7" y="688.2" fill-rule="evenodd" clip-rule="evenodd" fill="#DB7453" width="1168.3" height="157.7"/>
				<path fill-rule="evenodd" clip-rule="evenodd" fill="#9A4337" d="M810.6,819.7c0.2,4.1-2.9,7.6-7,7.8c-4.1,0.2-7.6-2.9-7.8-7
					c-0.2-4.1,2.9-7.6,7-7.8C806.9,812.4,810.4,815.6,810.6,819.7L810.6,819.7z"/>
				<path fill-rule="evenodd" clip-rule="evenodd" fill="#9A4337" d="M810.6,711.4c0.2,4.1-2.9,7.6-7,7.8c-4.1,0.2-7.6-2.9-7.8-7
					c-0.2-4.1,2.9-7.6,7-7.8C806.9,704.2,810.4,707.3,810.6,711.4L810.6,711.4z"/>
				<path fill-rule="evenodd" clip-rule="evenodd" fill="#9A4337" d="M1939.5,819.7c0.2,4.1-2.9,7.6-7,7.8c-4.1,0.2-7.6-2.9-7.8-7
					c-0.2-4.1,2.9-7.6,7-7.8C1935.8,812.4,1939.3,815.6,1939.5,819.7L1939.5,819.7z"/>
				<path fill-rule="evenodd" clip-rule="evenodd" fill="#9A4337" d="M1939.5,711.4c0.2,4.1-2.9,7.6-7,7.8c-4.1,0.2-7.6-2.9-7.8-7
					c-0.2-4.1,2.9-7.6,7-7.8C1935.8,704.2,1939.3,707.3,1939.5,711.4L1939.5,711.4z"/>
				<path fill-rule="evenodd" clip-rule="evenodd" fill="#9A4337" d="M1937.5,957.5c0.2,4.1-2.9,7.6-7,7.8c-4.1,0.2-7.6-2.9-7.8-7
					c-0.2-4.1,2.9-7.6,7-7.8C1933.8,950.3,1937.3,953.4,1937.5,957.5L1937.5,957.5z"/>
				<path fill-rule="evenodd" clip-rule="evenodd" fill="#9A4337" d="M1937.5,873.3c0.2,4.1-2.9,7.6-7,7.8c-4.1,0.2-7.6-2.9-7.8-7
					c-0.2-4.1,2.9-7.6,7-7.8C1933.8,866.1,1937.3,869.2,1937.5,873.3L1937.5,873.3z"/>
				<path fill-rule="evenodd" clip-rule="evenodd" fill="#9A4337" d="M808,957.5c0.2,4.1-2.9,7.6-7,7.8c-4.1,0.2-7.6-2.9-7.8-7
					c-0.2-4.1,2.9-7.6,7-7.8C804.2,950.3,807.7,953.4,808,957.5L808,957.5z"/>
				<path fill-rule="evenodd" clip-rule="evenodd" fill="#9A4337" d="M808,873.3c0.2,4.1-2.9,7.6-7,7.8c-4.1,0.2-7.6-2.9-7.8-7
					c-0.2-4.1,2.9-7.6,7-7.8C804.2,866.1,807.7,869.2,808,873.3L808,873.3z"/>
				<g>
					<path fill="#DAAC80" d="M872.8,1091v153.2c0,33.9,36.9,61.4,82.5,61.4c41.9,0,76.4-23.2,81.8-53.2V1091H872.8z"/>
					<path fill="#DAAC80" d="M1204,1091v163.1c6.4,29.2,40.4,51.5,81.4,51.5c45.6,0,82.5-27.5,82.5-61.4c0,1.8,0.1,3.7,0.3,5.5V1091
						H1204z"/>
					<path fill="#DAAC80" d="M1532.7,1091v158.3c0.2-1.7,0.3-3.4,0.3-5.2c0,33.9,36.9,61.4,82.5,61.4c44.7,0,81.1-26.5,82.5-59.5
						v-155H1532.7z"/>
					<path fill="#DAAC80" d="M1862.9,1091v157.7c0.1-1.5,0.3-3,0.3-4.6c0,33.9,36.9,61.4,82.5,61.4c45.6,0,82.5-27.5,82.5-61.4V1091
						H1862.9z"/>
				</g>
				<path fill="#EC7F62" d="M1717.9,932h-326c2.4-4.1,3.8-8.9,3.8-14.1v0c0-15.3-12.4-27.7-27.7-27.7H866.5
					c-15.3,0-27.7,12.4-27.7,27.7v0c0,15.3,12.4,27.7,27.7,27.7h276c0,7.5,6.1,13.6,13.6,13.6h561.8c7.5,0,13.6-6.1,13.6-13.6v0
					C1731.5,938.1,1725.4,932,1717.9,932z"/>
				<path fill-rule="evenodd" clip-rule="evenodd" fill="#B74E39" d="M984,707.8L984,707.8c0,19.1,4.2,37.1,11.6,53.1
					c0.1,0.2,0.2,0.5,0.3,0.7c1.1,2.3,2.2,4.6,3.5,6.8c0.1,0.2,0.3,0.5,0.4,0.7c0.6,1,1.2,2.1,1.8,3.1c0,0.1,0.1,0.1,0.1,0.2
					c0.7,1.1,1.3,2.2,2,3.2c0.1,0.2,0.3,0.4,0.4,0.7c0.6,0.9,1.2,1.9,1.9,2.8c0.1,0.1,0.2,0.2,0.3,0.4c0.7,1,1.5,2,2.2,3
					c0.1,0.2,0.3,0.4,0.4,0.6c0.7,0.9,1.3,1.7,2,2.6c0.1,0.2,0.2,0.3,0.4,0.5c0.8,1,1.6,1.9,2.4,2.9c0.1,0.2,0.3,0.3,0.4,0.5
					c0.7,0.8,1.4,1.6,2.1,2.4c0.2,0.2,0.3,0.4,0.5,0.5c0.8,0.9,1.7,1.8,2.6,2.7c0.1,0.1,0.3,0.3,0.4,0.4c0.8,0.8,1.5,1.5,2.3,2.2
					c0.2,0.2,0.4,0.4,0.6,0.5c0.9,0.8,1.8,1.7,2.7,2.5c0.1,0.1,0.2,0.2,0.3,0.3c0.8,0.7,1.7,1.4,2.5,2.1c0.2,0.2,0.4,0.4,0.7,0.5
					c1,0.8,1.9,1.5,2.9,2.3c0.1,0,0.1,0.1,0.2,0.1c0.9,0.7,1.9,1.4,2.8,2c0.2,0.2,0.5,0.3,0.7,0.5c2,1.4,4,2.7,6.1,4
					c0.3,0.2,0.5,0.3,0.8,0.5c1,0.6,1.9,1.1,2.9,1.7c0.1,0.1,0.2,0.1,0.3,0.2c1.1,0.6,2.1,1.1,3.2,1.7c0.3,0.1,0.5,0.3,0.8,0.4
					c0.9,0.5,1.9,0.9,2.9,1.4c0.2,0.1,0.3,0.2,0.5,0.2c1.1,0.5,2.2,1,3.3,1.4c0.3,0.1,0.5,0.2,0.8,0.3c0.9,0.4,1.9,0.8,2.9,1.1
					c0.2,0.1,0.4,0.2,0.7,0.3c1.1,0.4,2.3,0.8,3.4,1.2c0.3,0.1,0.5,0.2,0.8,0.2c1,0.3,1.9,0.6,2.9,0.9c0.3,0.1,0.5,0.2,0.8,0.2
					c1.2,0.3,2.3,0.6,3.5,0.9c0.2,0.1,0.5,0.1,0.7,0.2c1,0.2,2,0.5,3,0.7c0.3,0.1,0.6,0.1,0.9,0.2c1.2,0.2,2.4,0.5,3.6,0.6
					c0.2,0,0.4,0.1,0.6,0.1c1.1,0.2,2.1,0.3,3.2,0.4c0.3,0,0.6,0.1,0.9,0.1c1.2,0.1,2.5,0.3,3.7,0.4c0.1,0,0.2,0,0.4,0
					c1.1,0.1,2.3,0.2,3.4,0.2c0.3,0,0.7,0,1,0c1.3,0,2.5,0.1,3.8,0.1H1675c62.4,0,113-53.8,113-120.3v0v0c0-6.1-1.7-11.7-4.7-16.4
					c-0.2-0.4-0.5-0.8-0.8-1.2c-0.2-0.2-0.3-0.4-0.5-0.6H990C986.2,694.6,984,700.9,984,707.8z"/>
				<g>
					<path fill-rule="evenodd" clip-rule="evenodd" fill="#B8472B" d="M1014.3,672.4h720.2c8.9,0,16.2-7.3,16.2-16.2v-87.8
						c0-8.9-7.3-16.2-16.2-16.2h-720.2c-8.9,0-16.2,7.3-16.2,16.2v87.8C998.1,665.1,1005.4,672.4,1014.3,672.4L1014.3,672.4z"/>
					<path fill-rule="evenodd" clip-rule="evenodd" fill="#D25131" d="M998.1,568.4v57.6c77.1,15,182.7,24.2,299.1,24.2
						c236.1,0,427.5-37.9,427.5-84.7c0-4.5-1.8-8.9-5.2-13.3h-705.2C1005.4,552.1,998.1,559.4,998.1,568.4z"/>
					<g>
						<path fill-rule="evenodd" clip-rule="evenodd" fill="#F8B748" d="M1659.2,812.9h-578.1c-62.4,0-113-50.6-113-113v0
							c0-15.2,12.4-27.6,27.6-27.6h748.8c15.2,0,27.6,12.4,27.6,27.6v0C1772.1,762.4,1721.6,812.9,1659.2,812.9z"/>
						<path fill-rule="evenodd" clip-rule="evenodd" fill="#F9D96C" d="M1744.5,672.4h-77.9c-31,32.1-111,85.8-298.8,85.8
							c-179.7,0-318.1-7-389.6-11.6c17.7,39.1,57.2,66.4,102.9,66.4h578.1c62.4,0,113-50.6,113-113v0
							C1772.1,684.7,1759.8,672.4,1744.5,672.4z"/>
					</g>
					<path fill-rule="evenodd" clip-rule="evenodd" fill="#F6F633" d="M991.3,557.1c0,0,224,29.4,417.2,81.9
						c0,0,280.1-51.1,328.2-45c0,0-2.9-31.8-51.2-43.7C1589.6,526.8,1366.2,519.2,991.3,557.1z"/>
					<path fill-rule="evenodd" clip-rule="evenodd" fill="#F6F695" d="M1412.7,630.1c-135.7-36.9-285.2-63.3-374.9-77.6
						c-15.2,1.4-30.7,2.9-46.5,4.5c0,0,224,29.4,417.2,81.9c0,0,280.1-51.1,328.2-45c0,0-0.5-5.3-4.3-12.3
						C1633.5,589.8,1412.7,630.1,1412.7,630.1z"/>
					<path fill-rule="evenodd" clip-rule="evenodd" fill="#77C131" d="M1015.9,511.8c0,0-74.4,19.5-60.6,35.5
						c13.9,16,46.7,8,88.3,19.5c41.6,11.5,20.2,36.6,66.9,33.2c13.9-1,29.4-3.8,40.2-13.3c11.4-10,12.1-25.6,31.5-25.8
						c19.5-0.2,38.5,27,56,35.7c17.6,8.8,38.3,15.2,57.9,9.8c20.1-5.5,24.5-21.4,40.5-33.2c50.4-37.3,80.9,61.4,133.4,31.3
						c20.5-11.7,35.7-61.3,65.6-37.8c18.9,14.9,27.8,64.1,71.9,38.9c44.2-25.2,32.8-46.9,60.5-38.9c23.3,6.7,38,33.3,62.4,37.8
						c26,4.8,67.8-19.3,55-49.3c-15.1-35.5-41.6-53.8-41.6-53.8h-709.1L1015.9,511.8z"/>
					<path fill-rule="evenodd" clip-rule="evenodd" fill="#F8B748" d="M1779.3,475.2c1,2.8,1.6,5.9,1.6,9.1V502
						c0,14.6-12,26.6-26.6,26.6H981.9c-14.6,0-26.6-12-26.6-26.6v-17.8c0-2.3,0.3-4.6,0.9-6.8l0,0l0-0.1l0.1-0.3l13.8-49.5l0,0
						c20.5-102.7,191.9-182.9,400.4-182.9c210,0,382.5,81.4,400.8,185.2l0-0.1L1779.3,475.2L1779.3,475.2z"/>
					<path fill-rule="evenodd" clip-rule="evenodd" fill="#F9D96C" d="M1780.9,495.6v6.5c0,14.6-12,26.6-26.6,26.6H981.9
						c-14.6,0-26.6-12-26.6-26.6v-17.8c0-1,0.1-1.9,0.2-2.8c6.6,11,17.2,24,21.6,25.7c0,0.5,759.7-6.6,785.3-7.7
						C1769.3,499.2,1775.4,497.7,1780.9,495.6L1780.9,495.6z"/>
					<path fill-rule="evenodd" clip-rule="evenodd" fill="#F9F1D1" d="M1149.7,341.2c10-2.6,19-1.4,20.1,2.7
						c1.1,4.1-6.2,9.6-16.2,12.2c-10,2.6-19,1.4-20.1-2.7C1132.4,349.3,1139.6,343.9,1149.7,341.2L1149.7,341.2z"/>
					<path fill-rule="evenodd" clip-rule="evenodd" fill="#F9F1D1" d="M1547.9,310.6c10-2.6,19-1.4,20.1,2.7
						c1.1,4.1-6.2,9.6-16.2,12.2c-10,2.6-19,1.4-20.1-2.7C1530.6,318.7,1537.9,313.2,1547.9,310.6L1547.9,310.6z"/>
					<path fill-rule="evenodd" clip-rule="evenodd" fill="#F9F1D1" d="M1254.9,379.2c9.9,3,17,8.7,15.8,12.8
						c-1.2,4.1-10.3,5-20.2,2.1c-9.9-3-17-8.7-15.8-12.8C1235.9,377.2,1244.9,376.3,1254.9,379.2L1254.9,379.2z"/>
					<path fill-rule="evenodd" clip-rule="evenodd" fill="#F9F1D1" d="M1294.1,288.6c9.6-4,18.6-4.1,20.3-0.1
						c1.7,3.9-4.7,10.4-14.3,14.4c-9.6,4-18.6,4.1-20.3,0.1C1278.1,299,1284.5,292.6,1294.1,288.6L1294.1,288.6z"/>
					<path fill-rule="evenodd" clip-rule="evenodd" fill="#F9F1D1" d="M1423.1,370.4c9.6-4,18.6-4.1,20.3-0.1
						c1.7,3.9-4.7,10.4-14.3,14.4c-9.6,4-18.6,4.1-20.3,0.1C1407.1,380.8,1413.5,374.4,1423.1,370.4L1423.1,370.4z"/>
					<path fill-rule="evenodd" clip-rule="evenodd" fill="#F9F1D1" d="M1340.9,342.6c8.1,6.4,12.6,14.3,10,17.7
						c-2.6,3.4-11.4,0.9-19.5-5.5c-8.1-6.4-12.6-14.3-10-17.7C1324,333.8,1332.8,336.2,1340.9,342.6L1340.9,342.6z"/>
					<path fill-rule="evenodd" clip-rule="evenodd" fill="#F9F1D1" d="M1461,292.2c10.1,2.4,17.5,7.7,16.5,11.8
						c-1,4.2-9.9,5.6-20,3.3c-10.1-2.4-17.5-7.7-16.5-11.8C1441.9,291.3,1450.9,289.8,1461,292.2L1461,292.2z"/>
					<path fill-rule="evenodd" clip-rule="evenodd" fill="#F9F1D1" d="M1198.1,288.6c10.2-1.6,19.1,0.6,19.7,4.8
						c0.7,4.2-7.1,8.9-17.4,10.5c-10.2,1.6-19.1-0.6-19.7-4.8C1180.1,294.9,1187.8,290.2,1198.1,288.6L1198.1,288.6z"/>
					<path fill-rule="evenodd" clip-rule="evenodd" fill="#F9F1D1" d="M1372.5,272.6c9,5.2,14.5,12.4,12.4,16.1
						c-2.1,3.7-11.1,2.5-20.1-2.6c-9-5.2-14.5-12.4-12.4-16.1C1354.5,266.2,1363.5,267.4,1372.5,272.6L1372.5,272.6z"/>
				</g>
			</g>
			<path fill="#EC7F62" d="M910.3,1952.3v41.7c-4.1-2.4-8.9-3.8-14.1-3.8h0c-15.3,0-27.7,12.4-27.7,27.7v218.8
				c0,15.3,12.4,27.7,27.7,27.7h0c15.3,0,27.7-12.4,27.7-27.7v-99.1c7.5,0,13.6-6.1,13.6-13.6v-171.7c0-7.5-6.1-13.6-13.6-13.6l0,0
				C916.5,1938.7,910.3,1944.8,910.3,1952.3z"/>
			<path fill="#EC7F62" d="M1853.7,1961.8L1853.7,1961.8c-12.6,0-22.9,10.2-22.9,22.9v29.7c-3.4-2.1-7.4-3.2-11.7-3.2h0
				c-12.6,0-22.9,10.2-22.9,22.9v81.8c-6.2,0-11.3,5-11.3,11.3v141.8c0,6.2,5,11.3,11.3,11.3c6.2,0,11.3-5,11.3-11.3v-34.5
				c3.4,2,7.4,3.2,11.6,3.2h0c7.2,0,13.7-3.4,17.9-8.6c3.1-2,5.1-5.5,5.1-9.4v-34.5c3.4,2,7.4,3.2,11.6,3.2h0
				c12.6,0,22.9-10.2,22.9-22.9v-180.6C1876.6,1972.1,1866.4,1961.8,1853.7,1961.8z"/>
			<g>
				<path fill="#F75C31" d="M991.8,1614.3c-0.4-3.1-3-5.4-6.1-5.4c-3.1,0-5.7,2.3-6.1,5.4l-3.7,29.7h19.6L991.8,1614.3z"/>
				<path fill="#F75C31" d="M1010.9,1655.9h-48.4c-6.1,0-11,4.9-11,11v122.5c0,6.1,4.9,11,11,11h48.4c6.1,0,11-4.9,11-11v-122.5
					C1021.8,1660.8,1016.9,1655.9,1010.9,1655.9z"/>
				<path fill="#C83E24" d="M1004.4,1644.1h-36.1c-4,0-7.3,3.3-7.3,7.3v4.5h50.8v-4.5C1011.7,1647.3,1008.5,1644.1,1004.4,1644.1z"
					/>
				<path fill="#C83E24" d="M1011.7,1655.9V1772c0,6.1-4.9,11-11,11h-48.4c-0.3,0-0.6,0-0.9,0v6.5c0,6.1,4.9,11,11,11h48.4
					c6.1,0,11-4.9,11-11v-122.5C1021.8,1661.1,1017.4,1656.4,1011.7,1655.9z"/>
				<g>
					<rect x="957.6" y="1701.7" fill="#F9E6C4" width="57.6" height="52.8"/>
					<polygon fill="#DAAC80" points="1009.1,1701.7 1009.1,1745.8 957.6,1745.8 957.6,1754.5 1015.2,1754.5 1015.2,1701.7 					"/>
				</g>
			</g>
			<g>
				<path fill="#FED529" d="M1077.4,1614.3c-0.4-3.1-3-5.4-6.1-5.4c-3.1,0-5.7,2.3-6.1,5.4l-3.7,29.7h19.6L1077.4,1614.3z"/>
				<path fill="#FED529" d="M1096.5,1655.9h-48.4c-6.1,0-11,4.9-11,11v122.5c0,6.1,4.9,11,11,11h48.4c6.1,0,11-4.9,11-11v-122.5
					C1107.4,1660.8,1102.5,1655.9,1096.5,1655.9z"/>
				<path fill="#FEB719" d="M1090,1644.1h-36.1c-4,0-7.3,3.3-7.3,7.3v4.5h50.8v-4.5C1097.4,1647.3,1094.1,1644.1,1090,1644.1z"/>
				<path fill="#FEB719" d="M1097.4,1655.9V1772c0,6.1-4.9,11-11,11H1038c-0.3,0-0.6,0-0.9,0v6.5c0,6.1,4.9,11,11,11h48.4
					c6.1,0,11-4.9,11-11v-122.5C1107.4,1661.1,1103,1656.4,1097.4,1655.9z"/>
				<g>
					<rect x="1043.2" y="1701.7" fill="#F9E6C4" width="57.6" height="52.8"/>
					<polygon fill="#DAAC80" points="1094.7,1701.7 1094.7,1745.8 1043.2,1745.8 1043.2,1754.5 1100.8,1754.5 1100.8,1701.7 					
						"/>
				</g>
			</g>
			<g>
				<path fill="#A7B74E" d="M1172.2,1614.3c-0.4-3.1-3-5.4-6.1-5.4c-3.1,0-5.7,2.3-6.1,5.4l-3.7,29.7h19.6L1172.2,1614.3z"/>
				<path fill="#A7B74E" d="M1191.3,1655.9h-48.4c-6.1,0-11,4.9-11,11v122.5c0,6.1,4.9,11,11,11h48.4c6.1,0,11-4.9,11-11v-122.5
					C1202.3,1660.8,1197.4,1655.9,1191.3,1655.9z"/>
				<path fill="#849B32" d="M1184.9,1644.1h-36.1c-4,0-7.3,3.3-7.3,7.3v4.5h50.8v-4.5C1192.2,1647.3,1188.9,1644.1,1184.9,1644.1z"
					/>
				<path fill="#849B32" d="M1192.2,1655.9V1772c0,6.1-4.9,11-11,11h-48.4c-0.3,0-0.6,0-0.9,0v6.5c0,6.1,4.9,11,11,11h48.4
					c6.1,0,11-4.9,11-11v-122.5C1202.3,1661.1,1197.8,1656.4,1192.2,1655.9z"/>
				<g>
					<rect x="1138" y="1701.7" fill="#F9E6C4" width="57.6" height="52.8"/>
					<polygon fill="#DAAC80" points="1189.6,1701.7 1189.6,1745.8 1138,1745.8 1138,1754.5 1195.6,1754.5 1195.6,1701.7 					"/>
				</g>
			</g>
			<g>
				<rect x="1478.5" y="1763.2" fill="#F9E6C4" width="350" height="29.8"/>
				<g>
					<path fill-rule="evenodd" clip-rule="evenodd" fill="#B8472B" d="M1516.4,1741.8h114.9c1.4,0,2.6-1.2,2.6-2.6v-14
						c0-1.4-1.2-2.6-2.6-2.6h-114.9c-1.4,0-2.6,1.2-2.6,2.6v14C1513.8,1740.6,1515,1741.8,1516.4,1741.8L1516.4,1741.8z"/>
					<path fill-rule="evenodd" clip-rule="evenodd" fill="#D25131" d="M1513.8,1725.2v9.2c12.3,2.4,29.1,3.9,47.7,3.9
						c37.7,0,68.2-6.1,68.2-13.5c0-0.7-0.3-1.4-0.8-2.1h-112.5C1515,1722.6,1513.8,1723.7,1513.8,1725.2z"/>
					<g>
						<path fill-rule="evenodd" clip-rule="evenodd" fill="#F8B748" d="M1619.3,1764.2H1527c-10,0-18-8.1-18-18v0
							c0-2.4,2-4.4,4.4-4.4h119.5c2.4,0,4.4,2,4.4,4.4v0C1637.3,1756.1,1629.2,1764.2,1619.3,1764.2z"/>
						<path fill-rule="evenodd" clip-rule="evenodd" fill="#F9D96C" d="M1632.9,1741.8h-12.4c-5,5.1-17.7,13.7-47.7,13.7
							c-28.7,0-50.8-1.1-62.2-1.8c2.8,6.2,9.1,10.6,16.4,10.6h92.2c10,0,18-8.1,18-18v0C1637.3,1743.7,1635.3,1741.8,1632.9,1741.8z
							"/>
					</g>
					<path fill-rule="evenodd" clip-rule="evenodd" fill="#F6F633" d="M1512.7,1723.4c0,0,35.7,4.7,66.6,13.1c0,0,44.7-8.2,52.4-7.2
						c0,0-0.5-5.1-8.2-7C1608.2,1718.5,1572.5,1717.3,1512.7,1723.4z"/>
					<path fill-rule="evenodd" clip-rule="evenodd" fill="#F6F695" d="M1580,1735c-21.6-5.9-45.5-10.1-59.8-12.4
						c-2.4,0.2-4.9,0.5-7.4,0.7c0,0,35.7,4.7,66.6,13.1c0,0,44.7-8.2,52.4-7.2c0,0-0.1-0.8-0.7-2C1615.2,1728.6,1580,1735,1580,1735
						z"/>
					<path fill-rule="evenodd" clip-rule="evenodd" fill="#77C131" d="M1516.6,1716.1c0,0-11.9,3.1-9.7,5.7
						c2.2,2.6,7.4,1.3,14.1,3.1c6.6,1.8,3.2,5.8,10.7,5.3c2.2-0.2,4.7-0.6,6.4-2.1c1.8-1.6,1.9-4.1,5-4.1c3.1,0,6.1,4.3,8.9,5.7
						c2.8,1.4,6.1,2.4,9.2,1.6c3.2-0.9,3.9-3.4,6.5-5.3c8-6,12.9,9.8,21.3,5c3.3-1.9,5.7-9.8,10.5-6c3,2.4,4.4,10.2,11.5,6.2
						c7-4,5.2-7.5,9.7-6.2c3.7,1.1,6.1,5.3,10,6c4.2,0.8,10.8-3.1,8.8-7.9c-2.4-5.7-6.6-8.6-6.6-8.6h-113.1L1516.6,1716.1z"/>
					<path fill-rule="evenodd" clip-rule="evenodd" fill="#F8B748" d="M1638.4,1710.3c0.2,0.5,0.3,0.9,0.3,1.4v2.8
						c0,2.3-1.9,4.2-4.2,4.2h-123.2c-2.3,0-4.2-1.9-4.2-4.2v-2.8c0-0.4,0-0.7,0.1-1.1l0,0l0,0l0-0.1l2.2-7.9l0,0
						c3.3-16.4,30.6-29.2,63.9-29.2c33.5,0,61,13,63.9,29.6l0,0L1638.4,1710.3L1638.4,1710.3z"/>
					<path fill-rule="evenodd" clip-rule="evenodd" fill="#F9D96C" d="M1638.7,1713.6v1c0,2.3-1.9,4.2-4.2,4.2h-123.2
						c-2.3,0-4.2-1.9-4.2-4.2v-2.8c0-0.2,0-0.3,0-0.5c1.1,1.8,2.7,3.8,3.4,4.1c0,0.1,121.2-1.1,125.3-1.2
						C1636.8,1714.1,1637.8,1713.9,1638.7,1713.6L1638.7,1713.6z"/>
					<path fill-rule="evenodd" clip-rule="evenodd" fill="#F9F1D1" d="M1538,1688.9c1.6-0.4,3-0.2,3.2,0.4c0.2,0.7-1,1.5-2.6,2
						c-1.6,0.4-3,0.2-3.2-0.4C1535.2,1690.2,1536.4,1689.3,1538,1688.9L1538,1688.9z"/>
					<path fill-rule="evenodd" clip-rule="evenodd" fill="#F9F1D1" d="M1601.5,1684c1.6-0.4,3-0.2,3.2,0.4c0.2,0.7-1,1.5-2.6,2
						c-1.6,0.4-3,0.2-3.2-0.4C1598.8,1685.3,1599.9,1684.5,1601.5,1684L1601.5,1684z"/>
					<path fill-rule="evenodd" clip-rule="evenodd" fill="#F9F1D1" d="M1554.8,1695c1.6,0.5,2.7,1.4,2.5,2c-0.2,0.7-1.6,0.8-3.2,0.3
						c-1.6-0.5-2.7-1.4-2.5-2C1551.7,1694.7,1553.2,1694.5,1554.8,1695L1554.8,1695z"/>
					<path fill-rule="evenodd" clip-rule="evenodd" fill="#F9F1D1" d="M1561,1680.5c1.5-0.6,3-0.6,3.2,0c0.3,0.6-0.8,1.7-2.3,2.3
						c-1.5,0.6-3,0.6-3.2,0C1558.5,1682.2,1559.5,1681.2,1561,1680.5L1561,1680.5z"/>
					<path fill-rule="evenodd" clip-rule="evenodd" fill="#F9F1D1" d="M1581.6,1693.6c1.5-0.6,3-0.6,3.2,0c0.3,0.6-0.8,1.7-2.3,2.3
						c-1.5,0.6-3,0.6-3.2,0S1580.1,1694.2,1581.6,1693.6L1581.6,1693.6z"/>
					<path fill-rule="evenodd" clip-rule="evenodd" fill="#F9F1D1" d="M1568.5,1689.2c1.3,1,2,2.3,1.6,2.8c-0.4,0.5-1.8,0.1-3.1-0.9
						c-1.3-1-2-2.3-1.6-2.8S1567.2,1688.1,1568.5,1689.2L1568.5,1689.2z"/>
					<path fill-rule="evenodd" clip-rule="evenodd" fill="#F9F1D1" d="M1587.7,1681.1c1.6,0.4,2.8,1.2,2.6,1.9
						c-0.2,0.7-1.6,0.9-3.2,0.5c-1.6-0.4-2.8-1.2-2.6-1.9C1584.6,1681,1586,1680.7,1587.7,1681.1L1587.7,1681.1z"/>
					<path fill-rule="evenodd" clip-rule="evenodd" fill="#F9F1D1" d="M1545.7,1680.5c1.6-0.3,3,0.1,3.1,0.8
						c0.1,0.7-1.1,1.4-2.8,1.7c-1.6,0.3-3-0.1-3.1-0.8C1542.8,1681.5,1544.1,1680.8,1545.7,1680.5L1545.7,1680.5z"/>
					<path fill-rule="evenodd" clip-rule="evenodd" fill="#F9F1D1" d="M1573.5,1678c1.4,0.8,2.3,2,2,2.6c-0.3,0.6-1.8,0.4-3.2-0.4
						c-1.4-0.8-2.3-2-2-2.6C1570.7,1677,1572.1,1677.1,1573.5,1678L1573.5,1678z"/>
				</g>
				<g>
					<path fill-rule="evenodd" clip-rule="evenodd" fill="#B8472B" d="M1672.4,1741.7h114.9c1.4,0,2.6-1.2,2.6-2.6v-14
						c0-1.4-1.2-2.6-2.6-2.6h-114.9c-1.4,0-2.6,1.2-2.6,2.6v14C1669.8,1740.6,1671,1741.7,1672.4,1741.7L1672.4,1741.7z"/>
					<path fill-rule="evenodd" clip-rule="evenodd" fill="#D25131" d="M1669.8,1725.1v9.2c12.3,2.4,29.1,3.9,47.7,3.9
						c37.7,0,68.2-6.1,68.2-13.5c0-0.7-0.3-1.4-0.8-2.1h-112.5C1671,1722.6,1669.8,1723.7,1669.8,1725.1z"/>
					<g>
						<path fill-rule="evenodd" clip-rule="evenodd" fill="#F8B748" d="M1775.3,1764.2h-92.2c-10,0-18-8.1-18-18l0,0
							c0-2.4,2-4.4,4.4-4.4h119.5c2.4,0,4.4,2,4.4,4.4l0,0C1793.3,1756.1,1785.3,1764.2,1775.3,1764.2z"/>
						<path fill-rule="evenodd" clip-rule="evenodd" fill="#F9D96C" d="M1788.9,1741.7h-12.4c-5,5.1-17.7,13.7-47.7,13.7
							c-28.7,0-50.8-1.1-62.2-1.8c2.8,6.2,9.1,10.6,16.4,10.6h92.2c10,0,18-8.1,18-18l0,0
							C1793.3,1743.7,1791.4,1741.7,1788.9,1741.7z"/>
					</g>
					<path fill-rule="evenodd" clip-rule="evenodd" fill="#F6F633" d="M1668.7,1723.3c0,0,35.7,4.7,66.6,13.1c0,0,44.7-8.2,52.4-7.2
						c0,0-0.5-5.1-8.2-7C1764.2,1718.5,1728.6,1717.3,1668.7,1723.3z"/>
					<path fill-rule="evenodd" clip-rule="evenodd" fill="#F6F695" d="M1736,1735c-21.6-5.9-45.5-10.1-59.8-12.4
						c-2.4,0.2-4.9,0.5-7.4,0.7c0,0,35.7,4.7,66.6,13.1c0,0,44.7-8.2,52.4-7.2c0,0-0.1-0.8-0.7-2C1771.2,1728.6,1736,1735,1736,1735
						z"/>
					<path fill-rule="evenodd" clip-rule="evenodd" fill="#77C131" d="M1672.7,1716.1c0,0-11.9,3.1-9.7,5.7
						c2.2,2.6,7.4,1.3,14.1,3.1c6.6,1.8,3.2,5.8,10.7,5.3c2.2-0.2,4.7-0.6,6.4-2.1c1.8-1.6,1.9-4.1,5-4.1c3.1,0,6.1,4.3,8.9,5.7
						c2.8,1.4,6.1,2.4,9.2,1.6c3.2-0.9,3.9-3.4,6.5-5.3c8-6,12.9,9.8,21.3,5c3.3-1.9,5.7-9.8,10.5-6c3,2.4,4.4,10.2,11.5,6.2
						c7-4,5.2-7.5,9.7-6.2c3.7,1.1,6.1,5.3,10,6c4.2,0.8,10.8-3.1,8.8-7.9c-2.4-5.7-6.6-8.6-6.6-8.6h-113.1L1672.7,1716.1z"/>
					<path fill-rule="evenodd" clip-rule="evenodd" fill="#F8B748" d="M1794.5,1710.3c0.2,0.5,0.3,0.9,0.3,1.4v2.8
						c0,2.3-1.9,4.2-4.2,4.2h-123.2c-2.3,0-4.2-1.9-4.2-4.2v-2.8c0-0.4,0-0.7,0.1-1.1l0,0l0,0l0-0.1l2.2-7.9l0,0
						c3.3-16.4,30.6-29.2,63.9-29.2c33.5,0,61,13,63.9,29.6l0,0L1794.5,1710.3L1794.5,1710.3z"/>
					<path fill-rule="evenodd" clip-rule="evenodd" fill="#F9D96C" d="M1794.7,1713.5v1c0,2.3-1.9,4.2-4.2,4.2h-123.2
						c-2.3,0-4.2-1.9-4.2-4.2v-2.8c0-0.2,0-0.3,0-0.5c1.1,1.8,2.7,3.8,3.4,4.1c0,0.1,121.2-1.1,125.3-1.2
						C1792.9,1714.1,1793.9,1713.9,1794.7,1713.5L1794.7,1713.5z"/>
					<path fill-rule="evenodd" clip-rule="evenodd" fill="#F9F1D1" d="M1694,1688.9c1.6-0.4,3-0.2,3.2,0.4c0.2,0.7-1,1.5-2.6,2
						s-3,0.2-3.2-0.4C1691.3,1690.2,1692.4,1689.3,1694,1688.9L1694,1688.9z"/>
					<path fill-rule="evenodd" clip-rule="evenodd" fill="#F9F1D1" d="M1757.6,1684c1.6-0.4,3-0.2,3.2,0.4c0.2,0.7-1,1.5-2.6,2
						s-3,0.2-3.2-0.4C1754.8,1685.3,1756,1684.4,1757.6,1684L1757.6,1684z"/>
					<path fill-rule="evenodd" clip-rule="evenodd" fill="#F9F1D1" d="M1710.8,1695c1.6,0.5,2.7,1.4,2.5,2c-0.2,0.7-1.6,0.8-3.2,0.3
						c-1.6-0.5-2.7-1.4-2.5-2C1707.8,1694.6,1709.2,1694.5,1710.8,1695L1710.8,1695z"/>
					<path fill-rule="evenodd" clip-rule="evenodd" fill="#F9F1D1" d="M1717.1,1680.5c1.5-0.6,3-0.6,3.2,0c0.3,0.6-0.8,1.7-2.3,2.3
						c-1.5,0.6-3,0.6-3.2,0C1714.5,1682.2,1715.5,1681.1,1717.1,1680.5L1717.1,1680.5z"/>
					<path fill-rule="evenodd" clip-rule="evenodd" fill="#F9F1D1" d="M1737.6,1693.6c1.5-0.6,3-0.6,3.2,0c0.3,0.6-0.8,1.7-2.3,2.3
						c-1.5,0.6-3,0.6-3.2,0S1736.1,1694.2,1737.6,1693.6L1737.6,1693.6z"/>
					<path fill-rule="evenodd" clip-rule="evenodd" fill="#F9F1D1" d="M1724.5,1689.1c1.3,1,2,2.3,1.6,2.8c-0.4,0.5-1.8,0.1-3.1-0.9
						c-1.3-1-2-2.3-1.6-2.8C1721.8,1687.7,1723.2,1688.1,1724.5,1689.1L1724.5,1689.1z"/>
					<path fill-rule="evenodd" clip-rule="evenodd" fill="#F9F1D1" d="M1743.7,1681.1c1.6,0.4,2.8,1.2,2.6,1.9
						c-0.2,0.7-1.6,0.9-3.2,0.5c-1.6-0.4-2.8-1.2-2.6-1.9C1740.6,1680.9,1742.1,1680.7,1743.7,1681.1L1743.7,1681.1z"/>
					<path fill-rule="evenodd" clip-rule="evenodd" fill="#F9F1D1" d="M1701.7,1680.5c1.6-0.3,3,0.1,3.1,0.8
						c0.1,0.7-1.1,1.4-2.8,1.7c-1.6,0.3-3-0.1-3.1-0.8C1698.9,1681.5,1700.1,1680.8,1701.7,1680.5L1701.7,1680.5z"/>
					<path fill-rule="evenodd" clip-rule="evenodd" fill="#F9F1D1" d="M1729.6,1678c1.4,0.8,2.3,2,2,2.6s-1.8,0.4-3.2-0.4
						c-1.4-0.8-2.3-2-2-2.6C1726.7,1676.9,1728.1,1677.1,1729.6,1678L1729.6,1678z"/>
				</g>
				
					<rect x="1486.3" y="1629.8" fill-rule="evenodd" clip-rule="evenodd" fill="#FFFFFF"  a:adobe-blending-mode="softLight" width="328.1" height="133.4"/>
				<g>
					<polygon fill-rule="evenodd" clip-rule="evenodd" fill="#FFFFFF"  a:adobe-blending-mode="softLight" points="1573.3,1763.2 
						1534.3,1763.2 1596.5,1629.8 1635.4,1629.8 					"/>
					<polygon fill-rule="evenodd" clip-rule="evenodd" fill="#FFFFFF"  a:adobe-blending-mode="softLight" points="1609.9,1763.2 
						1587.5,1763.2 1649.6,1629.8 1672,1629.8 					"/>
				</g>
			</g>
		</g>
	</g>
</g>
</svg>
