<?xml version="1.0" encoding="utf-8"?>
<!-- Generator: Adobe Illustrator 18.0.0, SVG Export Plug-In . SVG Version: 6.00 Build 0)  -->
<!DOCTYPE svg PUBLIC "-//W3C//DTD SVG 1.1//EN" "http://www.w3.org/Graphics/SVG/1.1/DTD/svg11.dtd">
<svg version="1.1" id="Layer_1" xmlns="http://www.w3.org/2000/svg" xmlns:xlink="http://www.w3.org/1999/xlink" x="0px" y="0px"
	 width="1400px" height="1400px" viewBox="0 0 1400 1400" enable-background="new 0 0 1400 1400" xml:space="preserve">
<g>
	<path fill="#B3B3B3" d="M1180.9,446L383.6,315.1l387.9,42.8l-276.1-42.8l9.5-19.6l675.9,129.1
		C1180.9,424.6,1196.3,448.5,1180.9,446z"/>
	<g>
		<polygon fill="#B3B3B3" points="1238.4,566.5 1138.2,1167.8 1271.7,578.3 		"/>
		<polygon fill="#B3B3B3" points="159.3,511.7 159.3,1134.4 128.3,1134.4 		"/>
		<g>
			<path fill="#B3B3B3" d="M184.1,467.4v624.3l947.8-38.1l106.4-568.8L157.9,292.5v121.6c0,0,491.9,97.5,537.3,106.1
				C650.5,513.7,184.1,467.4,184.1,467.4z"/>
			<polygon fill="#B3B3B3" points="200.2,1096.2 200.2,1175.9 1113.7,1230.8 1142.7,1075.9 			"/>
		</g>
	</g>
	<g>
		<defs>
			<path id="SVGID_1_" d="M1238.6,253.4c-30.2-45.3-28.9-33.5-96-95.9s-105.2-38.6-149.6-50.9c-44.3-12.3-172.3-36.9-218.9-36.9
				s-216.8,51.7-225.5,56.6c-8.6,4.9-281.9,84.3-281.9,84.3l22.1,99.2l-130.7-23.3v121.6c0,0,70,13.9,159.6,31.6l8,35.8
				c-80.2-8.1-141.4-14.1-141.4-14.1v714.7l913.5,54.9l140.7-752.1C1238.6,478.8,1268.8,298.6,1238.6,253.4z"/>
		</defs>
		<clipPath id="SVGID_2_">
			<use xlink:href="#SVGID_1_"  overflow="visible"/>
		</clipPath>
		<g clip-path="url(#SVGID_2_)">
			<path fill="#723C21" d="M686,241.1c0,0-17.8,1.8-27.7,5.5c0,0-5.2,32.2,4.9,119.6L780,300.3C780,300.3,699.1,251.1,686,241.1z"/>
			<path fill="#80A525" d="M613.2,477.1c1.5-0.7,22.6-4.5,30.9-14.3c8.4-9.9,10.9-17.1,7-19.5c-4-2.5-21.6,5.4-21.6,5.4
				s9.7-21.1,8.2-27.7c-1.5-6.5-15-7-18.7,0.7c-3.7,7.6-11.3,23-10,23.2c1.3,0.2,1.6-17.8-7.3-25c-8.9-7.2-16.3,2.5-16.3,2.5
				s-0.9,25.4,8.7,38.1S613.2,477.1,613.2,477.1z"/>
			<path fill="#7B991F" d="M644.2,462.8c8.4-9.9,10.9-17.1,7-19.5c-1.1-0.7-3.1-0.6-5.5-0.1c0.2,0,1.6,0.4,0,6.1
				c-1.7,6.1-12,15.2-12,15.2l-14.5,8.6c0,0,0.5,0.8,1.2,2.1C627.6,473.1,638.6,469.3,644.2,462.8z"/>
			<path fill="#80A525" d="M469.4,424.8c-1.4-1-21.3-8.6-27.8-19.8c-6.4-11.2-7.6-18.8-3.2-20.5s20.2,9.3,20.2,9.3
				s-5.7-22.6-2.9-28.7c2.7-6.1,16.1-4.1,18.3,4.1s6.8,24.7,5.6,24.6s1.7-17.8,11.8-23.3S507,376,507,376s-3.8,25.2-15.6,35.8
				S469.4,424.8,469.4,424.8z"/>
			<path fill="#7B991F" d="M496.8,369c0.1,0.1,6,5.3,6.5,8.4c0,0-9.5,24.9-12.1,29c-2.6,4.1-4.6,5.4-4.6,5.4s-9.7-3.3-18.6,1
				c-6.2,2.9-0.2,8.2,4,11.2c3.8-1.4,11.2-4.8,19.3-12.1C503.2,401.2,507,376,507,376S503.5,369,496.8,369z"/>
			<path fill="#F07D29" d="M442.3,592.6c0,0-7-46-8.3-82.4s-0.3-65.9,16.6-85.3c16.9-19.4,34.6-14,48.3-3.7
				c13.7,10.2,10.1,40.8,10.1,65.1c0,24.3-3.3,87.9-10.1,118.7c-6.8,30.7-16.5,56.7-27.4,56.7C460.6,661.6,447.9,637.9,442.3,592.6z
				"/>
			<path fill="#E87323" d="M478.3,538.8l28.4,1.7c1.6-21.9,2.3-42.7,2.3-54.4c0-24.3,3.5-54.8-10.1-65.1c-9-6.7-19.7-11.4-30.8-8.3
				c1.6,0.8,14.3,7,18.8,15.2c4.8,8.7,2.2,56.9,2.2,56.9L478.3,538.8z"/>
			<path fill="#F48940" d="M445.4,446.6c0,0-8.1,13.3-7.1,43.5c1,30.2,3.5,63.5,3.5,63.5l10.4-9.8
				C452.2,543.8,438.6,483.7,445.4,446.6z"/>
			<polygon fill="#231C47" points="580.4,923.8 541.3,1224.2 560.8,1647.7 690.2,1647.7 679.3,1306.3 716.6,1127.2 752.1,890.3 			
				"/>
			<polygon fill="#161335" points="730.1,1037 671.4,949.1 591.6,949.1 615.3,1021.7 693.5,1238 716.6,1127.2 			"/>
			<path fill="#963C47" d="M646.6,480.1c0,0-55,40.7-64.3,53.8c-9.3,13.1-32.8,70.9-32.8,70.9s23.5,26.1,62.7,29.9
				C651.3,638.4,646.6,480.1,646.6,480.1z"/>
			<path fill="#2E2352" d="M875.2,960.6v121.2l65.3,599.4l-108.2,13.1l-130.6-485.1l-22.4-248.7
				C679.3,960.6,798.7,898.6,875.2,960.6z"/>
			<path fill="#231C47" d="M875.2,1081.9V960.6c-36.3-29.4-82.2-31-120.5-24.4l-53,14.7c0,0,0,0,0,0l5.5,29.2
				c0,0,116.2,9,142.1,13.9v95.4l72.1,594.2l19.1-2.3L875.2,1081.9z"/>
			<polygon fill="#FA8A67" points="565.5,597.3 524.5,724.7 598.1,754.1 612.2,597.3 			"/>
			<path fill="#A3434A" d="M737.4,480.1h-90.8l-37.7,30.6l-59.4,439.3c0,0,65.8,10.1,158.3,17.4c92.5,7.2,178.1-6.7,178.1-6.7
				l-8.7-132.5l50.7-294.3c0,0-36.2-19.6-58-29.7s-75.4-24.3-84.1-24.1S737.4,480.1,737.4,480.1z"/>
			<path fill="#EDDBBC" d="M711.5,686.1c0,0-92.9-12.1-99.3-14.6c-6.4-2.4-30.8-8.2-39.9-9.1s-42.8-7.3-42.8-7.3h-8.2h-13.5
				l-68.4-5.5h-42.8l-12.7,13.6l-27.3,18.3l89.1,49.9l134.6,22.4l103.1-29.3l18.2-14L711.5,686.1z"/>
			<path fill="#723C21" d="M710.4,260.9L686,241.1c0,0-0.7-24.5,5.9-38.3c0-3.3,31.7-31.1,62.1-42.3c0,0,46.9-9.3,85.3,5.3
				c38.3,14.5,72.1,50.2,89.2,69.4s21.2,29.7,21.2,29.7l-18.5-5.9c0,0,7.9,21.2,11.9,36.4c4,15.2-9.9,5.9-9.9,5.9
				s-4.6,33.7-8.6,46.3c-4,12.6-18.9,39.1-18.9,39.1L710.4,260.9z"/>
			<path fill="#8E3233" d="M377.6,675.7c0,0-13.8-87.7-14.8-113.3c0,0,3-22.6,21.6-32.5l-10.8-101.4l41.1-7.9L426.8,522
				c0,0,17.7,0,34.4,18.7l20.7,126.9l10.8,57.1C492.8,724.7,390.4,766.3,377.6,675.7z"/>
			<path fill="#FA8A67" d="M724.5,445.9l3.8,41.8c0,0,17.3,12.5,37,15.9c19.7,3.4,52.5-9.6,52.5-9.6l6.1-56.2L724.5,445.9z"/>
			<path fill="#EF6E4B" d="M728.3,487.7c0,0,1.3,0.9,3.5,2.3l88.6-20.4l3.4-31.9l-99.5,8.2L728.3,487.7z"/>
			<path fill="#FA8A67" d="M884.3,348.8c0,0,10.6-2,17.2,0c0,0,4.6,11.2,4.6,31.7s-13.9,31.7-13.9,31.7s-18.5,2-24.5-5.3
				c-6.6,19.8-15.2,33.7-15.2,33.7c-52.9,23.8-96.4,27.1-96.4,27.1c-47.6-15.9-71.4-48.3-71.4-48.3c-7.2-85.2,9.2-161.3,9.2-161.3
				s8.6-26.4,40.3-39c31.7-12.6,88.6-14.5,127.6,15.9S884.3,348.8,884.3,348.8z"/>
			<path fill="#FC997E" d="M693.9,258.2c0,0-16.4,76.1-9.2,161.3c0,0,1.9,2.6,5.7,6.6c0-18.3,0-39.1-0.1-50.7
				c-0.4-23.7,11.5-61.6,11.5-61.6c16.5-28.2,37-58.2,37-58.2c-10.1-9.5-20.8-15.2-31.4-18.2C697.2,248.1,693.9,258.2,693.9,258.2z"
				/>
			<path fill="#FC997E" d="M685.2,342.1c0,0-10.6-8.9-15.9-8.9c0,0-11.2,22.2-7.9,41.8c3.3,19.6,9.3,26.3,19.8,23.6
				C691.8,396,685.2,342.1,685.2,342.1z"/>
			<path fill="#F47F60" d="M759.7,467.4c11.3-1.3,48.8-6.9,92.9-26.7c0,0,8.6-13.9,15.2-33.7c5.9,7.3,24.5,5.3,24.5,5.3
				s13.9-11.2,13.9-31.7c0-20.5-4.6-31.7-4.6-31.7c-6.6-2-17.2,0-17.2,0s14.5-73.2-15.8-107.4l-33.1,17.2l17.3,128.1l-15.4,51.1
				C837.3,437.8,782.2,464.1,759.7,467.4z"/>
			<path fill="#723C21" d="M682.3,348.1c0,0,13.4-49.6,19.4-70.1l18.6-20.5l66.3,18.9l4.6-13.7l51.1,18.3l29.1,12.1v82.3l7.5-6.1
				l5.4-20.6l34.1-44L861,205c0,0-76-11.6-80.2-11.6c-4.2,0-71.1,20.8-71.1,20.8l-32,46.5l-3.7,54.9L682.3,348.1z"/>
			<polygon fill="#AF545F" points="650.3,509.1 619.1,669.6 647.7,669.6 676.4,504.3 			"/>
			<path fill="#F07D29" d="M608.9,647c0,0,15.3-43.9,23.4-79.5s12.5-64.7-0.5-86.9c-13-22.2-31.5-20.1-46.8-12.6s-17.4,38.2-22,62.1
				c-4.5,23.9-13,87-12,118.5c1,31.5,5.8,58.8,16.5,60.8C578.2,711.5,595,690.5,608.9,647z"/>
			<path fill="#F48940" d="M587.8,473.2c0,0-2.4-1.2-7.6,9.5c-5.1,10.7-12,54-12,54l6.8-2.8C575.2,533.9,580.7,490.6,587.8,473.2z"
				/>
			<path fill="#A3B049" d="M692.4,754.2c0,0,13.8-87.7,14.8-113.3c0,0-3-22.6-21.6-32.5l10.8-101.4l-41.1-7.9l-12.1,101.4
				c0,0-17.7,0-34.4,18.7l-20.7,126.9l-10.8,57.1C577.3,803.3,679.7,844.8,692.4,754.2z"/>
			<path fill="#9CA341" d="M685.5,608.4l10.8-101.4l-24.4-4.7l-7.8,8.6l22.9,10.3l-10.6,100.9c0,0,12.4,12.8,13.9,22.2
				c1.5,9.4-10.4,85.7-10.4,85.7s8.1-1.7,16.7-3.6c4.1-28,9.9-69.3,10.6-85.6C707.2,640.9,704.2,618.3,685.5,608.4z"/>
			<polygon fill="#E2E2E2" points="561.8,532 566.4,523.7 580.3,515.4 566.4,709.7 566.4,730.1 548.7,730.1 			"/>
			<path fill="#E87323" d="M462.5,494.6c0,0,10.4,0.5,16.7,0c6.4-0.5,15.8-1,15.8-1l-2.3,6.5l-21.3-2.8L462.5,494.6z"/>
			<polygon fill="#E2E2E2" points="580.3,515.4 564.5,494.6 566.4,523.7 			"/>
			<path fill="#B3BA52" d="M647.7,607.8c0,0-18.9,4.2-23.7,11.4c-4.8,7.2-11.9,70.8-11.9,70.8l17.8,1.6c0,0,4.5-55.7,7.9-68.9
				C641.3,609.6,647.7,607.8,647.7,607.8z"/>
			<polygon fill="#F1F2F2" points="464.9,509.8 482.3,484.9 564.5,494.6 566.4,523.7 			"/>
			<polygon fill="#F1F2F2" points="482.3,484.9 487.2,464.6 564.5,471.9 564.5,494.6 			"/>
			<polygon fill="#8C9335" points="645.6,508.5 703.4,516.5 707.2,496.6 649.6,486.7 			"/>
			<polygon fill="#D1CED6" points="676.9,635 619.2,626.5 606.1,645.7 595.9,730.9 667.9,753.7 679.9,657.3 			"/>
			<polygon fill="#E0C05C" points="613.1,618.6 611.1,629.2 682.6,640 684.2,626.5 			"/>
			<path fill="#7F292D" d="M481.9,667.7l-20.7-126.9C444.6,522,426.8,522,426.8,522l-12.1-101.4l-8.7,1.7l-2,4.4l16.6,109.9
				c0,0,19.7,12.3,32.9,30.4c13.2,18.2,24.9,134.8,24.9,134.8s3.2-3.6,8.1-9.1L481.9,667.7z"/>
			<polygon fill="#F1F2F2" points="449.6,691.4 464.9,509.8 566.4,523.7 548.7,730.1 449.6,709.7 			"/>
			<path fill="#E87323" d="M631.8,480.6c-7-12-15.7-16.9-24.6-17.7c1.8,2.6,10.1,14.6,14.7,23.7c5.2,10.3,5.5,28.7,5.5,28.7
				s-16.4,6.1-27.2,1.2c0,0,6.2,4.6,16.5,5.4l10.7-2c0,0-1.2,19-2,24.6c-0.8,5.5-19.8,4.8-23.4,4c0,0,13.2,6.3,21.7,5.1l-17.3,45.5
				l17.3,1.3c3.1-10.8,6.2-22.2,8.6-32.8C640.4,532,644.8,502.8,631.8,480.6z"/>
			<polygon fill="#EDEDED" points="553.4,533.9 531.8,701.9 552.5,686.5 566.4,523.7 495,513.9 			"/>
			<path fill="#E0C05C" d="M676.4,658.1c0,0-23.2,2.9-28.6,2.1c-5.4-0.8-20.9-4.1-20.9-4.1l-14.6,68.7h14.6l42.1-11.2L676.4,658.1z"
				/>
			<polygon fill="#BCB9C1" points="668.5,642.5 671.4,661.6 664.1,719.9 653.3,719.9 662.4,661.6 660.6,642.5 			"/>
			<path fill="#D6B558" d="M662.4,661.6l-8.7,56l11.1-2.9l6.7-53.1l-0.4-2.9c-2.5,0.3-5.6,0.6-8.8,0.9L662.4,661.6z"/>
			<path fill="#FB9F3A" d="M522.2,712.4c0,0,3.5-88.9,17.8-126.2s35.4-56,58.1-55.3c22.7,0.6,31.4,30.4,33.9,68.4
				c2.5,38-11.2,119.5-11.2,119.5S540.5,728.8,522.2,712.4z"/>
			<path fill="#FCAF63" d="M577.3,542.4c0,0-24.5,12.6-31.6,44.5c-7,31.9-16.3,116-16.3,116h17.3
				C546.8,702.9,544.4,586.3,577.3,542.4z"/>
			<path fill="#F49334" d="M598.2,712l23.5,1.5c2.9-18.3,12.5-82.1,10.4-114.4c-2.5-38-11.2-67.7-33.9-68.4c0,0,12,16.4,13,41.5
				C612.2,597.3,598.2,712,598.2,712z"/>
			<path fill="#9E464A" d="M390.1,533.9c0,0-18.1,14.1-19.3,32.8l16.4,128.1l22.8-8.6l-22.8-117.7
				C387.2,568.4,383.3,555.2,390.1,533.9z"/>
			<g>
				<path fill="#FB9F3A" d="M470.8,782.9c0,0-13.3-88-6.3-127.3c7-39.3,24.2-61.6,46.6-65.3s36.6,23.9,46.2,60.7
					c9.6,36.8,11.5,119.4,11.5,119.4S491.9,795.5,470.8,782.9z"/>
				<path fill="#FCAF63" d="M492.9,605.6c0,0-21.7,17-22.6,49.7c-0.9,32.7,5.9,117,5.9,117l17-3.3
					C493.2,768.9,468.8,654.8,492.9,605.6z"/>
				<path fill="#F49334" d="M545.3,768.2l23.4-2.9c-0.6-18.5-3.2-83-11.4-114.3c-9.6-36.8-23.8-64.4-46.2-60.7
					c0,0,14.8,13.8,20.6,38.3C537.5,652.9,545.3,768.2,545.3,768.2z"/>
				<path fill="#F49334" d="M494.4,661.2c0,0,14.4-0.1,24.2-1.5c9.8-1.4,12.4-2.4,12.4-2.4s-8.9,6.5-17.4,6.5
					C505,663.7,494.4,661.2,494.4,661.2z"/>
				<path fill="#F49334" d="M496.7,693.3c0,0,14.4-0.1,24.2-1.5c9.8-1.4,12.4-2.4,12.4-2.4s-8.9,6.5-17.4,6.5
					C507.3,695.8,496.7,693.3,496.7,693.3z"/>
				<path fill="#F49334" d="M497.5,727.5c0,0,14.4-0.2,24.2-1.5c9.8-1.4,12.4-2.4,12.4-2.4s-8.9,6.5-17.4,6.5
					C508.1,730,497.5,727.5,497.5,727.5z"/>
			</g>
			<g>
				<path fill="#80A525" d="M451.3,626.8c0,0-10.7-8.6-20.5-26.3c-9.9-17.7-4.5-27.9-4.5-27.9s19.7-2.9,30.8,10.3
					c11.1,13.1,7.8,43.9,7.8,43.9S456.6,632.6,451.3,626.8z"/>
				<path fill="#5B4005" d="M457,622.7c4.9-8.6,2.9-22.2,16-32.4c13.1-10.3,20.5-10.3,20.5-10.3s7.4,5.7,10.7,11.9
					c0,0-13.6,0.4-23.6,9.4c-10.1,9-15.6,23-15.6,23h-6.4L457,622.7z"/>
				<path fill="#DB142C" d="M409.4,702.8c0,0-7.8-13.1-5.7-43.1c2.1-30,25-36.1,42.3-38.6c17.2-2.5,33.3-2.5,54.2,19.7
					c20.9,22.2,11,73.8-17.8,82C453.6,731,428.3,734,409.4,702.8z"/>
				<path fill="#D11333" d="M500.1,640.8c-12.5-13.3-23.3-18.6-33.6-20.2l0,0c0,0,12.5,8.6,20.5,20.3c8,11.7,8.9,33.3,8.9,33.3
					l-8.1,46.5C512.3,707.9,519.7,661.5,500.1,640.8z"/>
				<path fill="#E21B3D" d="M441,630.3c-2.3-0.8-4.8-0.6-7.1,0.3c-5.9,2.5-18.2,8.9-20.6,19.6c-3.3,14.2-2,31.9,0,40.3
					c0,0,1-35.1,10.9-43.1c5.9-4.8,12.1-6.6,16.2-7.4c5-0.9,5.6-7.9,0.9-9.6C441.2,630.3,441.1,630.3,441,630.3z"/>
			</g>
			<path fill="#F4E8D0" d="M356.7,681.7c0,0,78.3-4.3,104.4,0c26.1,4.3,34.8,10.1,34.8,10.1v7.2l13-9.7c0,0,21.7,6.8,58,9.7
				s55.1,11.6,55.1,11.6l36.3-4.3c0,0,1.5,113.1,0,172.5s-5.5,203-5.5,203s-64.1-7.2-109.1-11.6s-98.6-10.1-98.6-10.1l-88.4-7.2
				c0,0,0-163.8,0-207.3C356.7,802.1,365.4,680.3,356.7,681.7z"/>
			<path fill="#EADBC1" d="M640,865.6c0,0-14.9-3.2-41.9-12.2c-27-8.9-47.2-11-47.2-11l29.3,11.6l-18.2,2.9l73.9,23.2l10.4-6
				L640,865.6z"/>
			<path fill="#873241" d="M750,969.3l-38.6-283.2l-35.1,160.9L709,967.4C722.9,968.5,736.7,969.1,750,969.3z"/>
			<polygon fill="#873241" points="701.7,950.9 865.4,915.6 851,865.6 701.7,923.8 			"/>
			<path fill="#EADBC1" d="M658.3,878.9c1.5-59.4,0-172.5,0-172.5l-36.3,4.3c0,0-18.8-8.7-55.1-11.6c-5.7-0.5-11-1-15.9-1.6l0,0
				c0,0,24.1,7.1,40.7,12.1c16.5,5,43,24.7,43,24.7l7.6-4.1L624.3,933l-59.8,6.9c0,0,18.6,24.8,32.1,29.4
				c13.5,4.5,35.8,2.6,35.8,2.6l3.4,108.1c10.4,1.2,17,1.9,17,1.9S656.8,938.3,658.3,878.9z"/>
			<path fill="#E2CBAA" d="M711.5,686.1l-19.3,18l-19.9-2.7l-5.3,2.7l-8.7,2.2l-12,259.1l6.5,116.4l37.9-33.9l43.6,12.2
				c0,0-6.2-85.5-6.2-91.6c0-6.2-8.4-163.6-8.4-165.9S711.5,686.1,711.5,686.1z"/>
			<path fill="#FA8A67" d="M679.3,880.1c0,0-20.8-17.5-33-23.8c-12.2-6.4-15.8,0-15.8,0l5.5,23.8c0,0-31-6.5-37.8-6.5
				c-6.8,0-25.9-13.6-25.9-13.6s-4-8.7-12,10.6c-8,19.4-7.2,53.3-7.2,53.3s4.5,18.8,29.6,30.7c25.1,11.8,88.8-5.4,88.8-5.4
				l18.8-25.2L679.3,880.1z"/>
			<path fill="#873241" d="M877.1,828.2l29.7-172c0-0.1,0-0.1,0-0.1c1.3-0.4-69.5,23.8-69.5,23.8l-13.4,143.6L840.2,966
				c27.9-2.5,45.6-5.3,45.6-5.3L877.1,828.2z"/>
			<polygon fill="#D8BF9E" points="679.9,1057.6 690.6,1048 701.2,1051 690.2,730.1 			"/>
			<path fill="#FA8A67" d="M849.7,679.8c0,0-11.3,76.4-12.5,121.9L671.4,884v56c0,0,200.4-54.6,232.6-71.9
				c32.2-17.3,49.5-171,49.5-171S879.8,627.1,849.7,679.8z"/>
			<polygon fill="#DF4725" points="414.8,420.7 373.7,428.5 381.7,503.4 423.7,495.9 			"/>
			<polygon fill="#DF4725" points="368.4,441 419.4,427.6 415.6,406.4 365.9,420.7 			"/>
			<polygon fill="#D13419" points="394.1,434.2 410,437.8 415.6,497.3 423.7,495.9 415.6,427.5 			"/>
			<path fill="#723C21" d="M797,320.5c0,0-1.3,4.3-2.5,6.3l1.3,10c0,0,21.4,2.1,27,3.1s20.9,5.3,20.9,5.3l0.2-6.4l-20.8-11.3
				L797,320.5z"/>
			<path fill="#723C21" d="M744.6,313.9c0,0,0.6,4.4,1.5,6.6l-2.9,9.7c0,0-21.5-1.3-27.1-1.2c-5.6,0-21.5,1.9-21.5,1.9l0.8-6.3
				l22.3-7.9L744.6,313.9z"/>
			<path fill="#723C21" d="M700.9,351.4c0,0,11.3-3.3,17.6-4.3c6.3-1,18.6,2.2,18.6,2.2l7.6,9.1l-10.6-1.7l-11.3-4.1l-19.6,1.1
				l-7.1,0.7L700.9,351.4z"/>
			<path fill="#723C21" d="M831.1,364.1c0,0-10.5-5.2-16.5-7.3s-18.6-1.1-18.6-1.1l-9.1,7.6l10.7,0.2l11.8-2l19.1,4.6l6.9,1.9
				L831.1,364.1z"/>
			<path fill="#723C21" d="M771.2,429.9c-18.3,0-27.3-7.4-27.7-7.8l2.4-2.9c0.1,0.1,10.4,8.4,31,6.7c0.4,0,36.1-3.2,45.3-30.4
				l3.5,1.2c-4.2,12.2-13.9,21.8-28.2,27.7c-10.7,4.4-20,5.2-20.4,5.2C775,429.8,773.1,429.9,771.2,429.9z"/>
			<path fill="#F9957A" d="M849.7,679.8c0,0-11.3,76.4-12.5,121.9l-158,78.4l16.7,10.2l169.4-77.5c1.6-26.2,27.2-122.7,27.2-122.7
				l-35-20.5C854.7,672.3,852.1,675.7,849.7,679.8z"/>
			<path fill="#963C47" d="M927.9,533.9h-21.8c0,0-34.7,33.7-41.8,51.4c-7.1,17.7-18.4,60.3-27,94.5c0,0,25.6,13.9,79.2,21.5
				c0,0,26,3.6,48.8,0c0,0,6.5-53.2,5.2-72.1c-1.5-22.3-9.5-48.6-14.2-62.4c-2.1-6.1-5.6-11.5-10.3-15.9L927.9,533.9z"/>
			<path fill="#EF7959" d="M600.4,885.2c12.2,1.7,46.3,5.1,46.3,5.1l-10.7-10.2c0,0-31-6.5-37.8-6.5c-6.8,0-25.9-13.6-25.9-13.6
				s-4-8.7-12,10.6c-0.1,0.3-0.2,0.5-0.3,0.8C573.4,876.7,592.8,884.1,600.4,885.2z"/>
			<path fill="#893443" d="M944.9,702.9c6.6-0.1,13.6-0.5,20.4-1.6c0,0,6.5-53.2,5.2-72.1c-1.5-22.3-9.5-48.6-14.2-62.4
				c-2.1-6.1-5.6-11.5-10.3-15.9l-18.2-17.1h-8.5c0,0,21.2,43.4,26.9,59.7c5.7,16.3,0,86.2,0,86.2L944.9,702.9z"/>
			<polygon fill="#F9957A" points="564.5,923.8 595.5,944.7 647.7,940 646.3,933 595.5,940 			"/>
			<polygon fill="#873241" points="837.3,759.2 768.2,793 768.2,800.7 837.3,780.6 			"/>
			<path fill="#EADBC1" d="M399.9,823.4c0,0,32.3,15.3,40.7,19.2c8.4,3.9,52.1,15.4,52.1,15.4s-36.9-2.7-46.4-4.5
				s-18.5-3.1-18.5-3.1l-9.1,3.1c0,0-9.1,13.1-7.1,15.7c1.9,2.6,56.3,20.6,56.3,20.6l-42.7-8.9l9.7,9.5l-48.5-16.2L399.9,823.4z"/>
			<path fill="#EADBC1" d="M534.7,1005.6c0,0,55,22,71.1,20.7c16.2-1.3,42.7-10.3,42.7-10.3h-37.3l-24.3-7.8l6.9,7.8L534.7,1005.6z"
				/>
			<path fill="#EADBC1" d="M365.9,966l19.1,7.9l-4.4-7.9l23.5,3.3c0,0-25.5-9.7-28.1-10.7c-2.6-1-10.1-9.6-10.1-9.6v-58.7l15.3,3.5
				l18.8-22l-34.1-29.3l-9.2,3.6c0,44.4,0,206.7,0,206.7l6.3,0.5L365.9,966z"/>
			<path fill="#EADBC1" d="M399.6,789.3c0,0,24.2,17,33.9,18.3c9.7,1.3,43.5,6.7,37.9,3.3L425.2,800l-8.4-10.7l11.1,3.4l-23.7-15.5
				l-13.7,2.6L399.6,789.3z"/>
			<path fill="#FA8A67" d="M357.7,766.5c0,0-14.7,18.2-21.8,34.8c-7.1,16.6-9.5,25.3-9.5,25.3s-1.1,29.3,15.7,40.3
				c16.8,11.1,47.6,15,47.6,15s13.4-7.3,15-23.8c1.6-16.5,0-33.9,0-33.9l-14.2-30.1c0,0,14.1-4.7,14.9-13.4
				C406.3,772.1,370.8,760.2,357.7,766.5z"/>
			<path fill="#F47F60" d="M362.9,840c-2.2-1.9-18.7-24.7-27.6-37.2c-6.6,15.6-8.9,23.8-8.9,23.8s-1.1,29.3,15.7,40.3
				c16.8,11.1,47.6,15,47.6,15s13.4-7.3,15-23.8c0-0.3,0-0.5,0.1-0.8C385.2,849.7,364.4,841.3,362.9,840z"/>
			<path fill="#E87323" d="M492.8,452.1c0,0-8.9,5.3-17,4.3c-8.2-1-19.7,0.1-19.7,0.1s24.8,6.8,30.6,5.5c5.8-1.3,13-4.9,13-4.9
				L492.8,452.1z"/>
			<path fill="#94B236" d="M439.6,390.6c0,0,0.5,6.6,4.5,11.3c3.9,4.7,13.7,12.1,13.7,12.1l3.4-2.1l-15.9-12.7L439.6,390.6z"/>
			<path fill="#94B236" d="M587.8,423.9c0,0,0.9,15.7,4.5,24.2c3.5,8.5,5.8,10.8,5.8,10.8h4.7c0,0-2.4-0.3-7.5-13.5
				C590.2,432.3,587.8,423.9,587.8,423.9z"/>
			<path fill="#F49334" d="M568.3,597.3c0,0,14.1,2.6,24,3.1s12.6,0,12.6,0s-9.9,4.7-18.3,3.1C578.2,601.8,568.3,597.3,568.3,597.3z
				"/>
			<path fill="#F49334" d="M564.5,629.3c0,0,14.1,2.6,24,3.1c9.9,0.5,12.6,0,12.6,0s-9.9,4.7-18.3,3.1
				C574.4,633.7,564.5,629.3,564.5,629.3z"/>
			<path fill="#F49334" d="M558.9,663.1c0,0,14.1,2.6,24,3.1c9.9,0.5,12.6,0,12.6,0s-9.9,4.7-18.3,3.1S558.9,663.1,558.9,663.1z"/>
			<polygon fill="#B3BA52" points="657.1,516.5 647.7,600.4 652.9,599.1 658.9,516.5 			"/>
			<polygon fill="#D6B558" points="682.6,640 684.2,626.5 642.2,621.8 642.2,622.2 679.3,629.3 678.4,639.3 			"/>
			<path fill="#EDEDED" d="M558.9,526l-2.9-26.8L499.7,487l64.8,7.6l1.9,29.1C566.4,523.7,561.3,524.5,558.9,526z"/>
		</g>
	</g>
	<polygon fill="#B3B3B3" points="302.9,1198.6 1029.5,1245.9 1029.5,1264.4 286.4,1219.2 	"/>
</g>
</svg>
