<?xml version="1.0" encoding="utf-8"?>
<!-- Generator: Adobe Illustrator 18.0.0, SVG Export Plug-In . SVG Version: 6.00 Build 0)  -->
<!DOCTYPE svg PUBLIC "-//W3C//DTD SVG 1.1//EN" "http://www.w3.org/Graphics/SVG/1.1/DTD/svg11.dtd">
<svg version="1.1" id="Layer_1" xmlns="http://www.w3.org/2000/svg" xmlns:xlink="http://www.w3.org/1999/xlink" x="0px" y="0px"
	 width="1400px" height="1400px" viewBox="0 0 1400 1400" enable-background="new 0 0 1400 1400" xml:space="preserve">
<g>
	<defs>
		<rect id="SVGID_1_" width="1400" height="1400"/>
	</defs>
	<clipPath id="SVGID_2_">
		<use xlink:href="#SVGID_1_"  overflow="visible"/>
	</clipPath>
	<g clip-path="url(#SVGID_2_)">
		<path fill="#F5F6FA" d="M1286.8,542.3c34.3-74.7,44-119.5-14-186c-53.8-61.8-113.6-105.6-196.2-115.6
			c-75.3-9.1-146.9-2.9-221.6-19.1c-35.5-7.7-62.2-13.8-92.8-29.9c-24.8-13-47.3-30.2-74.1-40c-31.7-11.7-63.6-19-95.8-22.5l0,0
			c-38.8-6.2-148.9-11.9-213,21.2s-166.2,106.9-218.2,186c-44.8,68.1-107.5,215.3-56.5,293.1c31.3,47.8,87.8,50,133,76.3
			c37.6,21.8,56.9,56.4,66.8,98.1c21.9,92,3.6,164-24.1,250.4c-23.6,73.5-13.1,147.2,62.9,186.6c38,19.7,90.3,33,132.9,34.6
			c55.8,2.1,90-32.3,132.8-64.1c69.5-51.5,140.3-110.1,232.4-98c83.9,11,153.1-16.5,235.4-24.3c91.2-8.7,155.2-35.8,209.5-113.3
			c49.7-71.1,16.2-144.3-6.6-218.2C1259.9,693.6,1259.1,602.7,1286.8,542.3z"/>
		<path fill="#F09E6C" d="M1400,1461.3c0,0-340.4-418.6-355.9-480.1c-15.4-61.5-36.7-156.1-83-221.7c-46.3-65.6-403,16.7-403,16.7
			l186.9,270.7c0,0,186.7,375.5,215.6,435.3C989.6,1542.1,1400,1461.3,1400,1461.3z"/>
		<g>
			<path fill="#454589" d="M264.2,578.2l533.6,310.1c26.5,15.4,69.5,15.4,96.1,0l217.4-125.5c26.6-15.4,26.8-40.3,0.3-55.7L578,397
				c-26.4-15.4-69.5-15.4-96.1,0L264.5,522.5C237.9,537.9,237.7,562.8,264.2,578.2z M347.7,502.9c-2.2,1.3-5.7,1.3-7.9,0
				c-2.2-1.3-2.2-3.3,0-4.6c2.2-1.3,5.7-1.3,7.9,0C349.9,499.6,349.9,501.7,347.7,502.9z M429.8,454.1l-66.6,38.4
				c-1.5,0.9-4,0.9-5.5,0c-1.5-0.9-1.5-2.3,0-3.2l66.6-38.4c1.5-0.9,3.9-0.9,5.4,0C431.4,451.8,431.4,453.2,429.8,454.1z
				 M279.4,531.2l23.4-13.5c4.3-2.5,11.3-2.5,15.6,0c8.4,4.9,22,4.9,30.4,0l124.6-71.9c8.4-4.9,8.5-12.7,0.1-17.6
				c-4.3-2.5-4.3-6.5,0.1-9l23.4-13.5c18.3-10.6,47.9-10.6,66.1,0l533.6,310.1c18.2,10.6,18.1,27.7-0.2,38.3L879,879.6
				c-18.3,10.6-47.9,10.6-66.1,0L279.2,569.5C261,558.9,261.1,541.8,279.4,531.2z"/>
			<g>
				<path fill="#F4F4F4" d="M357.8,489.4l66.6-38.4c1.5-0.9,3.9-0.9,5.4,0c1.5,0.9,1.5,2.3,0,3.2l-66.6,38.4c-1.5,0.9-4,0.9-5.5,0
					C356.3,491.6,356.3,490.2,357.8,489.4z"/>
				<path fill="#F4F4F4" d="M339.8,498.3c2.2-1.3,5.7-1.3,7.9,0c2.2,1.3,2.2,3.3,0,4.6c-2.2,1.3-5.7,1.3-7.9,0
					C337.6,501.7,337.6,499.6,339.8,498.3z"/>
			</g>
			<path fill="#26235C" d="M264.2,578.2l533.6,310.1c26.5,15.4,69.5,15.4,96.1,0l217.4-125.5c13.4-7.7,20.1-17.9,20.1-28l0.1,27
				c0,10.1-6.7,20.3-20.1,28L894,915.3c-26.6,15.4-69.7,15.4-96.1,0L264.3,605.2c-13.1-7.6-19.7-17.6-19.7-27.6l-0.1-27
				C244.5,560.5,251,570.5,264.2,578.2z"/>
			<path fill="#FFFFFF" d="M279.4,531.2c-18.3,10.6-18.4,27.7-0.2,38.3l533.6,310.1c18.2,10.6,47.8,10.6,66.1,0l217.4-125.5
				c18.3-10.6,18.4-27.7,0.2-38.3L563,405.6c-18.2-10.6-47.8-10.6-66.1,0l-23.4,13.5c-4.3,2.5-4.3,6.5-0.1,9
				c8.4,4.9,8.3,12.7-0.1,17.6l-124.6,71.9c-8.4,4.9-22,4.9-30.4,0c-4.3-2.5-11.3-2.5-15.6,0L279.4,531.2z"/>
		</g>
		<g>
			<g>
				<polygon fill="#CFD0D1" points="915.3,551.1 611.7,727.5 306.2,551.1 609.8,374.7 				"/>
			</g>
			<polygon fill="#C1C1C1" points="306.2,551.1 609.8,374.7 609.8,414.8 306.1,590.8 			"/>
			<polygon fill="#BABABA" points="609.8,374.7 609.8,414.8 915.2,590.8 915.3,551.1 			"/>
			<g>
				<g>
					<path fill="#EFD6BD" d="M734.7,506.3c-71-41-185.7-41-256.2,0c0-9.7,0.1-19.5,0.1-29.2c70.5-41,185.2-41,256.2,0
						C734.7,486.8,734.7,496.5,734.7,506.3z"/>
				</g>
				<g>
					<path fill="#EFD6BD" d="M768.8,533.5c-8.5-9.8-19.9-19.1-34.1-27.3c0-9.7,0.1-19.5,0.1-29.2c14.2,8.2,25.6,17.4,34.1,27.3
						C768.8,513.1,768.8,524.8,768.8,533.5z"/>
				</g>
				<g>
					<path fill="#EFD6BD" d="M478.5,506.3L478.5,506.3c-35,20.4-52.6,47-52.6,73.7l0.1-29.2c0.1-26.7,17.6-53.3,52.6-73.7l0,0
						C478.5,486.8,478.5,496.5,478.5,506.3z"/>
				</g>
				<g>
					<polygon fill="#ED1C24" points="768.9,504.3 768.8,533.5 607,580.5 607.1,551.3 					"/>
				</g>
				<g>
					<polygon fill="#D8AC8B" points="794,497 793.9,526.2 607,580.5 607.1,551.3 					"/>
				</g>
				<g>
					<path fill="#EFD6BD" d="M788.2,551.8l-0.1,29.2c0-13-4.1-25.9-12.3-38.2l0.1-29.2C784.1,525.8,788.2,538.8,788.2,551.8z"/>
				</g>
				<g>
					<path fill="#ED1C24" d="M788.2,551.8l-0.1,29.2c-0.1,23.5-13.7,47-41,66.2l0.1-29.2C774.5,598.8,788.1,575.3,788.2,551.8z"/>
				</g>
				<g>
					<path fill="#D30D2A" d="M775.9,513.6c23.1,34.5,13.6,74.7-28.7,104.4l-110.8-64L775.9,513.6z"/>
				</g>
				<g>
					<polygon fill="#CC9B7A" points="767.3,629.6 767.2,658.8 636.4,583.2 636.5,554 					"/>
				</g>
				<g>
					<path fill="#EAC8A9" d="M801.2,506.2c28.3,40.7,17,88.4-33.9,123.3L636.5,554l110.8,64c42.3-29.8,51.8-69.9,28.7-104.4
						L801.2,506.2z"/>
				</g>
				<g>
					<path fill="#D8AC8B" d="M816.4,551.9l-0.1,29.2c-0.1,27.7-16.4,55.3-49.1,77.7l0.1-29.2C799.9,607.2,816.3,579.5,816.4,551.9z"
						/>
				</g>
				<g>
					<path fill="#ED1C24" d="M425.8,580l0.1-29.2c-0.1,27,17.8,54.1,53.5,74.7c71,41,185.7,41,256.2,0l-0.1,29.2
						c-70.5,41-185.2,41-256.2,0C443.6,634,425.7,607,425.8,580z"/>
				</g>
				<g>
					<path fill="#D30D2A" d="M734.7,477.1c14.2,8.2,25.6,17.4,34.1,27.3l-161.8,46.9l128.5,74.2c-70.5,41-185.2,41-256.2,0
						c-71-41-71.3-107.4-0.8-148.4C549.1,436.1,663.8,436.1,734.7,477.1z"/>
				</g>
				<g>
					<path fill="#D8AC8B" d="M397.6,579.9l0.1-29.2c-0.1,31.2,20.5,62.5,61.8,86.3c82,47.4,214.5,47.4,296,0l-0.1,29.2
						c-81.5,47.4-214,47.4-296,0C418.2,642.4,397.6,611.1,397.6,579.9z"/>
				</g>
				<g>
					<path fill="#EAC8A9" d="M754.6,465.5C771,475,784.1,485.7,794,497l-187,54.2l161.8-46.9c-8.5-9.8-19.9-19.1-34.1-27.3
						c-71-41-185.7-41-256.2,0c-70.5,41-70.1,107.4,0.8,148.4c71,41,185.7,41,256.2,0l20,11.5c-81.5,47.4-214,47.4-296,0
						c-82-47.4-82.4-124.1-1-171.5C540,418.2,672.6,418.2,754.6,465.5z"/>
				</g>
				<g>
					<path fill="#F96846" d="M547,488.1c-12.5-7.2-32.7-7.2-45.2,0c-12.4,7.2-12.4,18.9,0.1,26.2c12.5,7.2,32.7,7.2,45.2,0
						C559.6,507.1,559.5,495.3,547,488.1z"/>
					<path fill="#F44F2F" d="M551.9,485.3c-15.2-8.8-39.8-8.8-55,0c-15.1,8.8-15,23,0.2,31.8c15.2,8.8,39.8,8.8,55,0
						C567.2,508.3,567.1,494.1,551.9,485.3z M547.1,514.3c-12.4,7.2-32.7,7.2-45.2,0c-12.5-7.2-12.6-18.9-0.1-26.2
						c12.4-7.2,32.7-7.2,45.2,0C559.5,495.3,559.6,507.1,547.1,514.3z"/>
					<g>
						<path fill="#EA2C29" d="M543.7,490c3.5,2,3.6,5.4,0,7.4c-0.1,0.1-0.2,0.1-0.4,0.2c-7,3.8-14.7,1.5-15.1,1.3
							c-0.2-0.2-4.4-4.7,2.3-8.7c0.1-0.1,0.2-0.1,0.3-0.2C534.5,488,540.2,488,543.7,490z"/>
					</g>
					<g>
						<path fill="#EA2C29" d="M517.9,490c0.1,0.1,0.2,0.1,0.3,0.2c6.7,4.1,2.6,8.5,2.4,8.7c-0.4,0.1-8,2.5-15.1-1.3
							c-0.1-0.1-0.2-0.1-0.4-0.2c-3.6-2.1-3.6-5.4,0-7.4C508.6,488,514.4,488,517.9,490z"/>
					</g>
					<g>
						<path fill="#EA2C29" d="M543.8,505c3.6,2.1,3.6,5.4,0,7.4c-3.5,2-9.3,2-12.8,0c-0.1-0.1-0.2-0.1-0.3-0.2
							c-6.7-4.1-2.6-8.5-2.4-8.7c0.4-0.1,8-2.5,15.1,1.3C543.6,504.8,543.7,504.9,543.8,505z"/>
					</g>
					<g>
						<path fill="#EA2C29" d="M505.1,505c-3.6,2.1-3.6,5.4,0,7.4c3.5,2,9.3,2,12.8,0c0.1-0.1,0.2-0.1,0.3-0.2
							c6.7-4.1,2.6-8.5,2.4-8.7c-0.4-0.1-8-2.5-15.1,1.3C505.4,504.8,505.2,504.9,505.1,505z"/>
					</g>
				</g>
				<g>
					<path fill="#F96846" d="M599.1,592.2c-12.5-7.2-32.7-7.2-45.2,0c-12.4,7.2-12.4,18.9,0.1,26.2c12.5,7.2,32.7,7.2,45.2,0
						C611.7,611.2,611.6,599.5,599.1,592.2z"/>
					<path fill="#F44F2F" d="M604,589.4c-15.2-8.8-39.8-8.8-55,0c-15.1,8.8-15,23,0.2,31.8c15.2,8.8,39.8,8.8,55,0
						C619.3,612.4,619.2,598.2,604,589.4z M599.3,618.4c-12.4,7.2-32.7,7.2-45.2,0c-12.5-7.2-12.6-18.9-0.1-26.2
						c12.4-7.2,32.7-7.2,45.2,0C611.6,599.5,611.7,611.2,599.3,618.4z"/>
					<g>
						<path fill="#EA2C29" d="M595.9,594.1c3.5,2,3.6,5.4,0,7.4c-0.1,0.1-0.2,0.1-0.4,0.2c-7,3.8-14.7,1.5-15.1,1.3
							c-0.2-0.2-4.4-4.7,2.3-8.7c0.1-0.1,0.2-0.1,0.3-0.2C586.6,592.1,592.3,592.1,595.9,594.1z"/>
					</g>
					<g>
						<path fill="#EA2C29" d="M570,594.1c0.1,0.1,0.2,0.1,0.3,0.2c6.7,4.1,2.6,8.5,2.4,8.7c-0.4,0.1-8,2.5-15.1-1.3
							c-0.1-0.1-0.2-0.1-0.4-0.2c-3.6-2.1-3.6-5.4,0-7.4C560.7,592.1,566.5,592.1,570,594.1z"/>
					</g>
					<g>
						<path fill="#EA2C29" d="M595.9,609.1c3.6,2.1,3.6,5.4,0,7.4c-3.5,2-9.3,2-12.8,0c-0.1-0.1-0.2-0.1-0.3-0.2
							c-6.7-4.1-2.6-8.5-2.4-8.7c0.4-0.1,8-2.5,15.1,1.3C595.7,609,595.8,609,595.9,609.1z"/>
					</g>
					<g>
						<path fill="#EA2C29" d="M557.2,609.1c-3.6,2.1-3.6,5.4,0,7.4c3.5,2,9.3,2,12.8,0c0.1-0.1,0.2-0.1,0.3-0.2
							c6.7-4.1,2.6-8.5,2.4-8.7c-0.4-0.1-8-2.5-15.1,1.3C557.5,609,557.3,609,557.2,609.1z"/>
					</g>
				</g>
				<g>
					<path fill="#F96846" d="M757.2,552.7c-12.5-7.2-32.7-7.2-45.2,0c-12.4,7.2-12.4,18.9,0.1,26.2c12.5,7.2,32.7,7.2,45.2,0
						C769.8,571.6,769.8,559.9,757.2,552.7z"/>
					<path fill="#F44F2F" d="M762.1,549.9c-15.2-8.8-39.8-8.8-55,0c-15.1,8.8-15,23,0.2,31.8c15.2,8.8,39.8,8.8,55,0
						C777.4,572.9,777.3,558.6,762.1,549.9z M757.4,578.9c-12.4,7.2-32.7,7.2-45.2,0c-12.5-7.2-12.6-18.9-0.1-26.2
						c12.4-7.2,32.7-7.2,45.2,0C769.8,559.9,769.8,571.6,757.4,578.9z"/>
					<g>
						<path fill="#EA2C29" d="M754,554.6c3.5,2,3.6,5.4,0,7.4c-0.1,0.1-0.2,0.1-0.4,0.2c-7,3.8-14.7,1.5-15.1,1.3
							c-0.2-0.2-4.4-4.7,2.3-8.7c0.1-0.1,0.2-0.1,0.3-0.2C744.7,552.5,750.4,552.5,754,554.6z"/>
					</g>
					<g>
						<path fill="#EA2C29" d="M728.2,554.6c0.1,0.1,0.2,0.1,0.3,0.2c6.7,4.1,2.6,8.5,2.4,8.7c-0.4,0.1-8,2.5-15.1-1.3
							c-0.1-0.1-0.2-0.1-0.4-0.2c-3.6-2.1-3.6-5.4,0-7.4C718.9,552.5,724.6,552.5,728.2,554.6z"/>
					</g>
					<g>
						<path fill="#EA2C29" d="M754.1,569.5c3.6,2.1,3.6,5.4,0,7.4c-3.5,2-9.3,2-12.8,0c-0.1-0.1-0.2-0.1-0.3-0.2
							c-6.7-4.1-2.6-8.5-2.4-8.7c0.4-0.1,8-2.5,15.1,1.3C753.8,569.4,754,569.5,754.1,569.5z"/>
					</g>
					<g>
						<path fill="#EA2C29" d="M715.4,569.5c-3.6,2.1-3.6,5.4,0,7.4c3.5,2,9.3,2,12.8,0c0.1-0.1,0.2-0.1,0.3-0.2
							c6.7-4.1,2.6-8.5,2.4-8.7c-0.4-0.1-8-2.5-15.1,1.3C715.6,569.4,715.5,569.5,715.4,569.5z"/>
					</g>
				</g>
				<path fill="#FFAA00" d="M497,542.1c-4.3-2.5-11.2-2.5-15.4,0c-4.2,2.5-4.2,6.5,0.1,8.9c4.3,2.5,11.2,2.5,15.4,0
					C501.3,548.5,501.3,544.5,497,542.1z"/>
				<path fill="#FFAA00" d="M649.1,607.2c-2.9-1.7-7.6-1.7-10.6,0c-2.9,1.7-2.9,4.4,0,6.1c2.9,1.7,7.6,1.7,10.6,0
					C652,611.6,652,608.8,649.1,607.2z"/>
				<path fill="#FFAA00" d="M645.6,514.7c-1.3-0.8-3.5-0.8-4.8,0c-1.3,0.8-1.3,2,0,2.8c1.3,0.8,3.5,0.8,4.8,0
					C647,516.8,647,515.5,645.6,514.7z"/>
				<path fill="#00F78C" d="M677.7,481.3c-1.3-0.8-3.5-0.8-4.8,0c-1.3,0.8-1.3,2,0,2.8c1.3,0.8,3.5,0.8,4.8,0
					C679,483.3,679,482.1,677.7,481.3z"/>
				<path fill="#00F78C" d="M539.1,481.3c-1.3-0.8-3.5-0.8-4.8,0c-1.3,0.8-1.3,2,0,2.8c1.3,0.8,3.5,0.8,4.8,0
					C540.4,483.3,540.4,482.1,539.1,481.3z"/>
				<path fill="#00F78C" d="M539.1,563c-1.3-0.8-3.5-0.8-4.8,0c-1.3,0.8-1.3,2,0,2.8c1.3,0.8,3.5,0.8,4.8,0S540.4,563.7,539.1,563z"
					/>
				<path fill="#00F78C" d="M462.6,540.8c-1.3-0.8-3.5-0.8-4.8,0c-1.3,0.8-1.3,2,0,2.8c1.3,0.8,3.5,0.8,4.8,0
					S463.9,541.6,462.6,540.8z"/>
				<path fill="#00F78C" d="M583.1,522.3c-1.3-0.8-3.5-0.8-4.8,0c-1.3,0.8-1.3,2,0,2.8c1.3,0.8,3.5,0.8,4.8,0
					C584.5,524.3,584.5,523.1,583.1,522.3z"/>
				<path fill="#00F78C" d="M547.1,620.4c-1.3-0.8-3.5-0.8-4.8,0c-1.3,0.8-1.3,2,0,2.8c1.3,0.8,3.5,0.8,4.8,0
					C548.4,622.5,548.4,621.2,547.1,620.4z"/>
				<path fill="#00F78C" d="M630.4,577.1c-1.3-0.8-3.5-0.8-4.8,0c-1.3,0.8-1.3,2,0,2.8c1.3,0.8,3.5,0.8,4.8,0
					C631.8,579.1,631.8,577.9,630.4,577.1z"/>
				<path fill="#00F78C" d="M734.7,577.1c-1.3-0.8-3.5-0.8-4.8,0c-1.3,0.8-1.3,2,0,2.8c1.3,0.8,3.5,0.8,4.8,0
					C736,579.1,736,577.9,734.7,577.1z"/>
				<path fill="#00F78C" d="M697.8,549.3c-1.3-0.8-3.5-0.8-4.8,0c-1.3,0.8-1.3,2,0,2.8c1.3,0.8,3.5,0.8,4.8,0
					C699.1,551.3,699.1,550,697.8,549.3z"/>
				<path fill="#FFAA00" d="M760.8,543.5c-2.9-1.7-7.6-1.7-10.6,0c-2.9,1.7-2.9,4.4,0,6.1c2.9,1.7,7.6,1.7,10.6,0
					C763.8,547.9,763.7,545.2,760.8,543.5z"/>
				<path fill="#FFAA00" d="M616.1,465.6c-2.7-1.5-7-1.5-9.6,0c-2.6,1.5-2.6,4,0,5.6c2.7,1.5,7,1.5,9.6,0S618.7,467.1,616.1,465.6z"
					/>
			</g>
			<g>
				<polygon fill="#DBDBDB" points="915.3,551.1 915.2,590.8 611.6,767.2 611.7,727.5 				"/>
			</g>
			<g>
				<polygon fill="#E6E7E8" points="611.7,727.5 611.6,767.2 306.1,590.8 306.2,551.1 				"/>
			</g>
			<polygon fill="#CFD0D1" points="420.6,291.8 306.1,551.1 609.8,374.7 740.1,102.1 			"/>
			<polygon fill="#E6E7E8" points="420.6,291.8 441,321 331.7,565.9 306.1,551.1 			"/>
			<polygon fill="#E6E7E8" points="740.1,102.1 420.6,291.8 452.1,308.9 754.6,129.2 			"/>
			<polygon fill="#E6E7E8" points="740.1,102.1 609.8,374.7 634.3,388.8 752.1,139.8 			"/>
		</g>
		<path fill="#F09E6C" d="M544.4,670.8c34,35.6,43.6,78,54.9,102.1l0,0l0,0c1.9,4.1,3.9,7.6,6,10.5c8.3,13,25.9,36,56.4,56.3
			c45.5,30.4,166.1,87.2,166.1,87.2c26.7,44.6,8.9,114,6.1,135.5l-88.7-15.4c0,0-113.8-19.3-173.6-102.3
			c-59.8-83-44.4-107.5-55.9-152.1c-11.6-44.6-57.9-96.5-65.6-121.7C442.2,645.7,503.9,628.5,544.4,670.8z"/>
		<g>
			<g enable-background="new    ">
				<path fill="#ED4569" d="M932.8,702.3L888,676.4c-5.8-3.4-15.2-3.4-21,0L754.3,742c-5.8,3.4-5.7,8.8,0.1,12.1l44.7,25.8
					c5.8,3.4,15.2,3.4,21,0l112.8-65.5C938.6,711.1,938.6,705.6,932.8,702.3z"/>
				<g>
					<polygon fill="#FFFFFF" points="874.7,691.6 883.5,708.4 895.6,715.4 887.2,720.3 875.4,713.5 846.1,708.3 855.1,703 
						871.9,706.6 865.7,696.9 					"/>
				</g>
				<g>
					<path fill="#FFFFFF" d="M861.6,720.9c4.1,2.3,6.1,4.8,6,7.4c-0.1,2.6-2.2,5.2-6.5,7.7c-4.2,2.4-8.5,3.7-12.9,3.8
						c-4.4,0.1-8.7-1.1-12.7-3.4l-18.9-10.9l8.4-4.9l18.2,10.5c2.2,1.3,4.2,2,6,2c1.8,0.1,3.5-0.3,5.1-1.2c1.7-1,2.4-2,2.2-3
						c-0.2-1-1.4-2.2-3.7-3.5L834.6,715l8.3-4.8L861.6,720.9z"/>
				</g>
				<path fill="#FFFFFF" d="M833.3,741.1c-1.9-1.1-3.9-1.7-5.9-1.9c-2-0.2-4.3,0.1-6.7,0.9l-0.2-0.1c1.1-1,1.5-2.2,1.1-3.4
					c-0.3-1.2-1.4-2.3-3.1-3.3c-2.6-1.5-5.6-2.1-8.9-1.6c-3.3,0.5-7,1.9-11.2,4.3l-10.8,6.2l31,17.9l12-7c3.6-2.1,5.7-4.2,6.2-6.4
					C837.3,744.7,836.1,742.8,833.3,741.1z M812.4,740.8c-0.2,0.7-0.8,1.3-2,2l-2.5,1.5l-5.6-3.2l2.3-1.4c2.6-1.5,4.8-1.8,6.5-0.8
					C812.1,739.5,812.6,740.1,812.4,740.8z M823.4,749.9l-2.9,1.7l-6.5-3.8l2.8-1.6c1.3-0.8,2.6-1.2,3.9-1.3
					c1.2-0.1,2.4,0.2,3.4,0.8C826.2,747,826,748.4,823.4,749.9z"/>
			</g>
		</g>
		<path opacity="0.51" fill="#FFFFFF" d="M628.7,536.2c3.5,5.4,0.4,12.6-6,13.7c-17.7,3.1-48.4,1.6-61.3-41.9
			c-18.6-62.8,23.4-107.5-11.2-146.9c-34.5-39.4-161.9-33.1-110.4-150.5C528.3,9.1,428.4,15,378.5-21.4s350.3-157.9,409.6,3
			s-125.1,226.2-97.7,270.9s39.8,79.3-17.4,144.1C620.2,456.4,603.2,496.3,628.7,536.2z"/>
		<path fill="#FFFFFF" d="M794.3,239.4c-8.9-30.7-48.7-38.8-68.9-14.1c-6.1,7.5-10.7,14.4-10.9,18.5c-0.4,12.1-0.4,12.1-0.4,12.1
			s35.9,36.5,30.7,73.4c-5.2,36.9,19.1,33,43.3,0C801.8,310.4,803.5,270.9,794.3,239.4z"/>
		<path opacity="0.51" fill="#FFFFFF" d="M533,460.3c0,0,27.9-63,0-86.3c-27.9-23.3-84.4-27.2-103.2-56.2
			c-18.8-29-35.6,35.6,29.3,71.2C523.9,424.7,525.9,427.3,533,460.3z"/>
	</g>
</g>
</svg>
