<?xml version="1.0" encoding="UTF-8" standalone="no"?>
<!-- Created with Inkscape (http://www.inkscape.org/) -->

<svg
   xmlns:dc="http://purl.org/dc/elements/1.1/"
   xmlns:cc="http://creativecommons.org/ns#"
   xmlns:rdf="http://www.w3.org/1999/02/22-rdf-syntax-ns#"
   xmlns:svg="http://www.w3.org/2000/svg"
   xmlns="http://www.w3.org/2000/svg"
   version="1.1"
   width="121.30243"
   height="98.755585"
   id="svg47134">
  <defs
     id="defs47136">
    <clipPath
       id="clipPath25441">
      <path
         d="m 298.44,255.562 97.892,0 0,79.598 -97.892,0 0,-79.598 z"
         id="path25443" />
    </clipPath>
  </defs>
  <metadata
     id="metadata47139">
    <rdf:RDF>
      <cc:Work
         rdf:about="">
        <dc:format>image/svg+xml</dc:format>
        <dc:type
           rdf:resource="http://purl.org/dc/dcmitype/StillImage" />
        <dc:title></dc:title>
      </cc:Work>
    </rdf:RDF>
  </metadata>
  <g
     transform="translate(-573.63795,-280.08602)"
     id="layer1">
    <path
       d="m 667.77173,285.02196 -4.79125,12.18125 11.25,5.5725 5.1775,-13.3575 -11.63625,-4.39625 z"
       id="path25411"
       style="fill:#fffa99;fill-opacity:1;fill-rule:nonzero;stroke:none" />
    <path
       d="m 668.56561,284.97936 -5.275,12.08 13.9425,6.1375 5.69125,-13.24875 -14.35875,-4.96875 z"
       id="path25415"
       style="fill:#fff200;fill-opacity:1;fill-rule:nonzero;stroke:none" />
    <path
       d="m 656.49973,286.21709 -1.76,8.38625 2.96125,5.27 1.76625,-8.415 -2.9675,-5.24125 z"
       id="path25419"
       style="fill:#4d45a4;fill-opacity:1;fill-rule:nonzero;stroke:none" />
    <path
       d="m 659.35061,283.1581 6.9375,-1.4825 -0.2775,1.41125 -7.00375,1.7075 0.34375,-1.63625 z"
       id="path25423"
       style="fill:#9c8dce;fill-opacity:1;fill-rule:nonzero;stroke:none" />
    <path
       d="m 656.46011,286.0856 2.5325,-1.32625 0.0238,-0.0125 0.4675,6.61125 -3.02375,-5.2725 z"
       id="path25427"
       style="fill:#4d45a4;fill-opacity:1;fill-rule:nonzero;stroke:none" />
    <path
       d="m 666.0081,283.14386 0.5175,6.76875 -6.98375,1.5175 -0.49375,-6.615 6.96,-1.67125 z"
       id="path25431"
       style="fill:#9c8dce;fill-opacity:1;fill-rule:nonzero;stroke:none" />
    <path
       d="m 659.52111,291.52935 -1.79625,8.47875 7.02375,-1.675 1.71375,-8.375 -6.94125,1.57125 z"
       id="path25435"
       style="fill:#9c8dce;fill-opacity:1;fill-rule:nonzero;stroke:none" />
    <g
       transform="matrix(1.25,0,0,-1.25,200.34236,698.2941)"
       clip-path="url(#clipPath25441)"
       id="g25439">
      <g
         transform="translate(385.0159,320.9375)"
         id="g25445">
        <path
           d="m 0,0 -3.717,-1.73 3.306,2.396 -3.382,0.622 3.326,-0.005 -2.9,1.269 3.325,-0.882 -1.563,2.308 c 0,0 1.881,-1.916 1.926,-1.802 0.045,0.115 0.307,2.002 0.307,2.002 L 0.741,2.505 1.366,4.022 c 0,0 -0.238,-1.597 -0.231,-1.509 C 1.142,2.6 2.468,4.372 2.468,4.372 L 2.225,2.278 4.571,4.287 3.381,1.982 6.92,2.843 4.162,1.471 8.251,0.752 2.471,0.919 5.621,-0.803 1.078,0.936 2.922,-1.446 0.843,-0.192 0.507,-2.544 0,0 z"
           id="path25447"
           style="fill:#27963c;fill-opacity:1;fill-rule:nonzero;stroke:none" />
      </g>
      <g
         transform="translate(385.0159,320.9375)"
         id="g25449">
        <path
           d="m 0,0 -3.717,-1.73 3.306,2.396 -3.382,0.622 3.326,-0.005 -2.9,1.269 3.325,-0.882 -1.563,2.308 c 0,0 1.881,-1.916 1.926,-1.802 0.045,0.115 0.307,2.002 0.307,2.002 L 0.741,2.505 1.366,4.022 c 0,0 -0.238,-1.597 -0.231,-1.509 C 1.142,2.6 2.468,4.372 2.468,4.372 L 2.225,2.278 4.571,4.287 3.381,1.982 6.92,2.843 4.162,1.471 8.251,0.752 2.471,0.919 5.621,-0.803 1.078,0.936 2.922,-1.446 0.843,-0.192 0.507,-2.544 0,0 z"
           id="path25451"
           style="fill:none;stroke:#27963c;stroke-width:1.62;stroke-linecap:square;stroke-linejoin:round;stroke-miterlimit:4;stroke-opacity:1;stroke-dasharray:none" />
      </g>
      <g
         transform="translate(390.4649,320.06531)"
         id="g25453">
        <path
           d="m 0,0 1.715,-2.891 -2.564,2.685 -1.099,-2.342 0.346,2.382 -1.834,-1.912 1.409,2.267 -2.955,-0.817 c 0,0 2.513,1.097 2.378,1.144 -0.134,0.047 -2.393,0.483 -2.393,0.483 L -2.959,0.86 -4.731,1.507 c 0,0 1.909,-0.38 1.803,-0.364 -0.104,0.017 -2.115,1.199 -2.115,1.199 l 2.511,-0.449 -2.193,1.944 2.67,-1.155 -0.681,2.65 1.379,-2.157 1.29,2.836 L -0.861,1.891 1.546,3.922 -1.024,0.895 2.05,1.904 0.318,0.579 3.132,0.029 0,0 z"
           id="path25455"
           style="fill:#27963c;fill-opacity:1;fill-rule:nonzero;stroke:none" />
      </g>
      <g
         transform="translate(390.4649,320.06531)"
         id="g25457">
        <path
           d="m 0,0 1.715,-2.891 -2.564,2.685 -1.099,-2.342 0.346,2.382 -1.834,-1.912 1.409,2.267 -2.955,-0.817 c 0,0 2.513,1.097 2.378,1.144 -0.134,0.047 -2.393,0.483 -2.393,0.483 L -2.959,0.86 -4.731,1.507 c 0,0 1.909,-0.38 1.803,-0.364 -0.104,0.017 -2.115,1.199 -2.115,1.199 l 2.511,-0.449 -2.193,1.944 2.67,-1.155 -0.681,2.65 1.379,-2.157 1.29,2.836 L -0.861,1.891 1.546,3.922 -1.024,0.895 2.05,1.904 0.318,0.579 3.132,0.029 0,0 z"
           id="path25459"
           style="fill:none;stroke:#27963c;stroke-width:1.62;stroke-linecap:square;stroke-linejoin:round;stroke-miterlimit:4;stroke-opacity:1;stroke-dasharray:none" />
      </g>
      <g
         transform="translate(390.39819,317.00301)"
         id="g25461">
        <path
           d="M 0,0 3.854,1.87 -4.06,-35.821 -8.173,-37.86 0,0 z"
           id="path25463"
           style="fill:#165b98;fill-opacity:1;fill-rule:nonzero;stroke:none" />
      </g>
      <g
         transform="translate(379.1422,322.27991)"
         id="g25465">
        <path
           d="m 0,0 c 1.483,-0.995 1.263,-2.501 -0.492,-3.364 -1.753,-0.862 -4.375,-0.755 -5.858,0.24 -1.483,0.994 -1.263,2.5 0.492,3.363 1.47,0.723 3.553,0.764 5.062,0.172 C -0.506,0.297 -0.238,0.16 0,0"
           id="path25467"
           style="fill:#24265d;fill-opacity:1;fill-rule:nonzero;stroke:none" />
      </g>
      <g
         transform="translate(378.9305,322.4019)"
         id="g25469">
        <path
           d="M 0,0 C 0,0 -1.137,0.419 -1.637,0.344 L -1.911,0.083 -1.045,0.029 0.212,-0.122 -1.043,-0.573 -0.261,-0.721 0.45,-0.29 0.383,-1.139 0.851,-1.216 0,0 z"
           id="path25471"
           style="fill:#27963c;fill-opacity:1;fill-rule:nonzero;stroke:none" />
      </g>
      <g
         transform="translate(378.9305,322.4019)"
         id="g25473">
        <path
           d="M 0,0 C 0,0 -1.137,0.419 -1.637,0.344 L -1.911,0.083 -1.045,0.029 0.212,-0.122 -1.043,-0.573 -0.261,-0.721 0.45,-0.29 0.383,-1.139 0.851,-1.216 0,0 z"
           id="path25475"
           style="fill:none;stroke:#27963c;stroke-width:0.162;stroke-linecap:round;stroke-linejoin:round;stroke-miterlimit:4;stroke-opacity:1;stroke-dasharray:none" />
      </g>
      <g
         transform="translate(390.5529,321.7869)"
         id="g25477">
        <path
           d="M 0,0 3.944,2.086 0.516,-0.69 4.31,-1.153 0.636,-1.35 3.958,-2.537 0.203,-1.792 2.146,-4.177 c 0,0 -2.257,1.944 -2.297,1.818 -0.039,-0.126 -0.151,-2.17 -0.151,-2.17 l -0.283,1.792 -0.547,-1.669 c 0,0 0.113,1.731 0.113,1.636 0,-0.094 -1.297,-2.079 -1.297,-2.079 l 0.072,2.265 -2.403,-2.302 1.098,2.55 -3.828,-1.142 2.918,1.643 -4.584,0.523 6.399,0.173 -3.639,1.658 5.18,-1.591 -2.26,2.448 2.415,-1.221 0.15,2.548 L 0,0 z"
           id="path25479"
           style="fill:#27963c;fill-opacity:1;fill-rule:nonzero;stroke:none" />
      </g>
      <g
         transform="translate(390.5529,321.7869)"
         id="g25481">
        <path
           d="M 0,0 3.944,2.086 0.516,-0.69 4.31,-1.153 0.636,-1.35 3.958,-2.537 0.203,-1.792 2.146,-4.177 c 0,0 -2.257,1.944 -2.297,1.818 -0.039,-0.126 -0.151,-2.17 -0.151,-2.17 l -0.283,1.792 -0.547,-1.669 c 0,0 0.113,1.731 0.113,1.636 0,-0.094 -1.297,-2.079 -1.297,-2.079 l 0.072,2.265 -2.403,-2.302 1.098,2.55 -3.828,-1.142 2.918,1.643 -4.584,0.523 6.399,0.173 -3.639,1.658 5.18,-1.591 -2.26,2.448 2.415,-1.221 0.15,2.548 L 0,0 z"
           id="path25483"
           style="fill:none;stroke:#27963c;stroke-width:1.62;stroke-linecap:square;stroke-linejoin:round;stroke-miterlimit:4;stroke-opacity:1;stroke-dasharray:none" />
      </g>
      <g
         transform="translate(380.2832,318.0106)"
         id="g25485">
        <path
           d="M 0,0 4.518,5.303 8.909,1.757 5.272,-3.34 0,0 z"
           id="path25487"
           style="fill:#bf1b2c;fill-opacity:1;fill-rule:nonzero;stroke:none" />
      </g>
      <g
         transform="translate(384.8017,323.3138)"
         id="g25489">
        <path
           d="M 0,0 C 0,0 2.241,2.432 4,1.504 L 4.768,2.236 5.767,1.413 5.149,0.594 c 0,0 1.303,-1.502 -0.758,-4.14 L 0,0 z"
           id="path25491"
           style="fill:#e29387;fill-opacity:1;fill-rule:nonzero;stroke:none" />
      </g>
      <g
         transform="translate(389.5695,325.55)"
         id="g25493">
        <path
           d="M 0,0 0.835,1.053 1.877,0.164 0.999,-0.824 0,0 z"
           id="path25495"
           style="fill:#918f90;fill-opacity:1;fill-rule:nonzero;stroke:none" />
      </g>
      <g
         transform="translate(362.64931,322.9227)"
         id="g25497">
        <path
           d="m 0,0 -7.994,-38.072 27.809,-5.838 8.035,38.269 -1.165,-0.76 -0.822,1.259 -0.837,-0.546 -0.808,1.238 -1.138,-0.743 -0.753,1.155 -1.021,-0.667 -0.851,1.305 -1.021,-0.666 -0.634,0.97 -1.12,-0.732 -0.547,0.837 -0.936,-0.612 -0.623,0.953 -0.987,-0.644 -0.884,1.355 -1.355,-0.884 -0.71,1.087 L 10.383,-2.555 9.564,-1.301 8.51,-1.989 7.877,-1.019 6.906,-1.652 6.349,-0.799 5.379,-1.432 4.68,-0.362 3.676,-1.017 3.042,-0.047 2.256,-0.56 1.437,0.695 1.202,-0.425 0.279,0.988 0,0 z"
           id="path25499"
           style="fill:#165b98;fill-opacity:1;fill-rule:nonzero;stroke:none" />
      </g>
      <g
         transform="translate(333.1154,329.92799)"
         id="g25501">
        <path
           d="M 0,0 1.221,-10.401 11.259,-10.082 9.867,1.293 0,0 z"
           id="path25503"
           style="fill:#fffa99;fill-opacity:1;fill-rule:nonzero;stroke:none" />
      </g>
      <g
         transform="translate(333.6591,330.2579)"
         id="g25505">
        <path
           d="M 0,0 0.841,-10.512 12.992,-9.576 12.004,1.918 0,0 z"
           id="path25507"
           style="fill:#fff200;fill-opacity:1;fill-rule:nonzero;stroke:none" />
      </g>
      <g
         transform="translate(327.3324,317.7959)"
         id="g25509">
        <path
           d="m 0,0 c 0,0 -1.778,2.453 -4.133,2.353 0,0 0.61,0.531 1.211,0.59 0.602,0.058 -1.078,1.068 -1.403,0.972 0,0 1.12,0.298 1.236,0.303 0.116,0.005 -1.436,0.582 -1.436,0.582 0,0 1.473,0.401 2.577,-0.66 L 2.157,0.072 0,0 z"
           id="path25511"
           style="fill:#79cb3f;fill-opacity:1;fill-rule:nonzero;stroke:none" />
      </g>
      <g
         transform="translate(325.61681,324.8286)"
         id="g25513">
        <path
           d="M 0,0 1.925,-6.58 6.004,-9.178 4.072,-2.576 0,0 z"
           id="path25515"
           style="fill:#4d45a4;fill-opacity:1;fill-rule:nonzero;stroke:none" />
      </g>
      <g
         transform="translate(326.4724,328.06261)"
         id="g25517">
        <path
           d="M 0,0 4.333,3.666 4.671,2.565 0.376,-1.284 0,0 z"
           id="path25519"
           style="fill:#9c8dce;fill-opacity:1;fill-rule:nonzero;stroke:none" />
      </g>
      <g
         transform="translate(325.53931,324.90649)"
         id="g25521">
        <path
           d="M 0,0 1.285,1.892 1.297,1.909 4.123,-2.577 0,0 z"
           id="path25523"
           style="fill:#4d45a4;fill-opacity:1;fill-rule:nonzero;stroke:none" />
      </g>
      <g
         transform="translate(331.1624,330.5867)"
         id="g25525">
        <path
           d="M 0,0 2.921,-4.578 -1.431,-8.285 -4.278,-3.807 0,0 z"
           id="path25527"
           style="fill:#9c8dce;fill-opacity:1;fill-rule:nonzero;stroke:none" />
      </g>
      <g
         transform="translate(329.75369,322.22301)"
         id="g25529">
        <path
           d="M 0,0 1.935,-6.658 6.256,-2.825 4.302,3.73 0,0 z"
           id="path25531"
           style="fill:#9c8dce;fill-opacity:1;fill-rule:nonzero;stroke:none" />
      </g>
      <g
         transform="translate(347.446,326.62041)"
         id="g25533">
        <path
           d="m 0,0 -2.461,-3.28 1.785,3.673 -3.276,-1.048 2.935,1.566 -3.156,-0.25 3.347,0.791 -2.467,1.297 c 0,0 2.563,-0.801 2.549,-0.679 -0.015,0.123 -0.675,1.91 -0.675,1.91 l 0.89,-1.422 -0.165,1.632 c 0,0 0.543,-1.519 0.509,-1.439 -0.035,0.081 0.297,2.268 0.297,2.268 L 0.886,3.059 2.006,5.937 2.046,3.343 4.759,5.772 2.974,3.262 6.919,4.558 1.745,1.976 5.334,1.945 0.508,1.334 3.258,0.104 0.833,0.229 1.648,-2.004 0,0 z"
           id="path25535"
           style="fill:#27963c;fill-opacity:1;fill-rule:nonzero;stroke:none" />
      </g>
      <g
         transform="translate(347.446,326.62041)"
         id="g25537">
        <path
           d="m 0,0 -2.461,-3.28 1.785,3.673 -3.276,-1.048 2.935,1.566 -3.156,-0.25 3.347,0.791 -2.467,1.297 c 0,0 2.563,-0.801 2.549,-0.679 -0.015,0.123 -0.675,1.91 -0.675,1.91 l 0.89,-1.422 -0.165,1.632 c 0,0 0.543,-1.519 0.509,-1.439 -0.035,0.081 0.297,2.268 0.297,2.268 L 0.886,3.059 2.006,5.937 2.046,3.343 4.759,5.772 2.974,3.262 6.919,4.558 1.745,1.976 5.334,1.945 0.508,1.334 3.258,0.104 0.833,0.229 1.648,-2.004 0,0 z"
           id="path25539"
           style="fill:none;stroke:#27963c;stroke-width:1.62;stroke-linecap:square;stroke-linejoin:round;stroke-miterlimit:4;stroke-opacity:1;stroke-dasharray:none" />
      </g>
      <g
         transform="translate(352.6615,328.42349)"
         id="g25541">
        <path
           d="m 0,0 2.876,-1.739 -3.527,1.156 0.136,-2.583 -0.819,2.263 -0.714,-2.551 0.172,2.664 -2.22,-2.116 c 0,0 1.698,2.153 1.557,2.132 -0.141,-0.022 -2.338,-0.704 -2.338,-0.704 l 1.863,0.84 -1.868,-0.267 c 0,0 1.862,0.566 1.761,0.531 -0.1,-0.035 -2.43,0.058 -2.43,0.058 l 2.425,0.79 -2.851,0.678 2.9,0.243 -1.852,2.014 2.235,-1.251 -0.203,3.109 1.245,-4.006 1.163,2.926 L -1.325,0.306 0.909,2.646 0.007,0.661 2.747,1.505 0,0 z"
           id="path25543"
           style="fill:#27963c;fill-opacity:1;fill-rule:nonzero;stroke:none" />
      </g>
      <g
         transform="translate(352.6615,328.42349)"
         id="g25545">
        <path
           d="m 0,0 2.876,-1.739 -3.527,1.156 0.136,-2.583 -0.819,2.263 -0.714,-2.551 0.172,2.664 -2.22,-2.116 c 0,0 1.698,2.153 1.557,2.132 -0.141,-0.022 -2.338,-0.704 -2.338,-0.704 l 1.863,0.84 -1.868,-0.267 c 0,0 1.862,0.566 1.761,0.531 -0.1,-0.035 -2.43,0.058 -2.43,0.058 l 2.425,0.79 -2.851,0.678 2.9,0.243 -1.852,2.014 2.235,-1.251 -0.203,3.109 1.245,-4.006 1.163,2.926 L -1.325,0.306 0.909,2.646 0.007,0.661 2.747,1.505 0,0 z"
           id="path25547"
           style="fill:none;stroke:#27963c;stroke-width:1.62;stroke-linecap:square;stroke-linejoin:round;stroke-miterlimit:4;stroke-opacity:1;stroke-dasharray:none" />
      </g>
      <g
         transform="translate(354.0481,325.69231)"
         id="g25549">
        <path
           d="M 0,0 2.515,3.468 13.329,-33.496 10.665,-37.235 0,0 z"
           id="path25551"
           style="fill:#165b98;fill-opacity:1;fill-rule:nonzero;stroke:none" />
      </g>
      <g
         transform="translate(341.63409,325.0313)"
         id="g25553">
        <path
           d="m 0,0 c 1.777,-0.177 2.294,-1.608 1.154,-3.197 -1.138,-1.588 -3.501,-2.732 -5.277,-2.555 -1.777,0.177 -2.294,1.609 -1.155,3.197 0.956,1.332 2.772,2.352 4.382,2.541 C -0.587,0.023 -0.286,0.028 0,0"
           id="path25555"
           style="fill:#24265d;fill-opacity:1;fill-rule:nonzero;stroke:none" />
      </g>
      <g
         transform="translate(341.39,325.03889)"
         id="g25557">
        <path
           d="m 0,0 c 0,0 -1.2,-0.167 -1.605,-0.469 l -0.119,-0.36 0.789,0.362 1.179,0.46 -0.894,-0.99 0.76,0.239 0.424,0.715 0.341,-0.781 0.449,0.153 L 0,0 z"
           id="path25559"
           style="fill:#27963c;fill-opacity:1;fill-rule:nonzero;stroke:none" />
      </g>
      <g
         transform="translate(341.39,325.03889)"
         id="g25561">
        <path
           d="m 0,0 c 0,0 -1.2,-0.167 -1.605,-0.469 l -0.119,-0.36 0.789,0.362 1.179,0.46 -0.894,-0.99 0.76,0.239 0.424,0.715 0.341,-0.781 0.449,0.153 L 0,0 z"
           id="path25563"
           style="fill:none;stroke:#27963c;stroke-width:0.162;stroke-linecap:round;stroke-linejoin:round;stroke-miterlimit:4;stroke-opacity:1;stroke-dasharray:none" />
      </g>
      <g
         transform="translate(351.92619,329.9828)"
         id="g25565">
        <path
           d="M 0,0 2.493,3.7 0.781,-0.365 4.343,1.018 1.199,-0.89 4.687,-0.368 1.025,-1.484 3.863,-2.669 c 0,0 -2.907,0.648 -2.883,0.518 0.026,-0.129 0.891,-1.984 0.891,-1.984 l -1.094,1.446 0.305,-1.73 c 0,0 -0.717,1.579 -0.672,1.496 0.044,-0.083 -0.163,-2.445 -0.163,-2.445 l -1.005,2.031 -1.032,-3.164 -0.236,2.767 -2.835,-2.814 1.797,2.826 -4.288,-1.703 5.559,3.173 -3.991,-0.256 5.318,1.043 -3.148,1.09 2.705,0.065 -1.07,2.316 L 0,0 z"
           id="path25567"
           style="fill:#27963c;fill-opacity:1;fill-rule:nonzero;stroke:none" />
      </g>
      <g
         transform="translate(351.92619,329.9828)"
         id="g25569">
        <path
           d="M 0,0 2.493,3.7 0.781,-0.365 4.343,1.018 1.199,-0.89 4.687,-0.368 1.025,-1.484 3.863,-2.669 c 0,0 -2.907,0.648 -2.883,0.518 0.026,-0.129 0.891,-1.984 0.891,-1.984 l -1.094,1.446 0.305,-1.73 c 0,0 -0.717,1.579 -0.672,1.496 0.044,-0.083 -0.163,-2.445 -0.163,-2.445 l -1.005,2.031 -1.032,-3.164 -0.236,2.767 -2.835,-2.814 1.797,2.826 -4.288,-1.703 5.559,3.173 -3.991,-0.256 5.318,1.043 -3.148,1.09 2.705,0.065 -1.07,2.316 L 0,0 z"
           id="path25571"
           style="fill:none;stroke:#27963c;stroke-width:1.62;stroke-linecap:square;stroke-linejoin:round;stroke-miterlimit:4;stroke-opacity:1;stroke-dasharray:none" />
      </g>
      <g
         transform="translate(344.6552,321.8062)"
         id="g25573">
        <path
           d="M 0,0 1.48,6.808 7.025,5.755 6.224,-0.456 0,0 z"
           id="path25575"
           style="fill:#bf1b2c;fill-opacity:1;fill-rule:nonzero;stroke:none" />
      </g>
      <g
         transform="translate(346.13541,328.61411)"
         id="g25577">
        <path
           d="M 0,0 C 0,0 0.828,3.202 2.816,3.214 L 3.148,4.222 4.417,3.968 4.259,2.953 c 0,0 1.857,-0.708 1.285,-4.006 L 0,0 z"
           id="path25579"
           style="fill:#e29387;fill-opacity:1;fill-rule:nonzero;stroke:none" />
      </g>
      <g
         transform="translate(349.2831,332.83611)"
         id="g25581">
        <path
           d="M 0,0 0.239,1.323 1.577,1.031 1.269,-0.254 0,0 z"
           id="path25583"
           style="fill:#918f90;fill-opacity:1;fill-rule:nonzero;stroke:none" />
      </g>
      <g
         transform="translate(326.7906,317.813)"
         id="g25585">
        <path
           d="M 0,0 10.923,-37.337 38.195,-29.358 27.215,8.173 26.547,6.953 25.228,7.675 24.748,6.798 23.45,7.508 22.798,6.317 21.589,6.979 21.004,5.91 19.637,6.658 19.052,5.588 18.036,6.145 17.393,4.97 16.517,5.45 15.98,4.469 14.981,5.015 14.415,3.982 12.996,4.759 12.218,3.339 11.079,3.963 10.36,2.648 9.046,3.368 8.441,2.264 7.425,2.82 6.869,1.803 5.974,2.293 5.418,1.276 4.296,1.89 3.721,0.839 2.704,1.395 2.254,0.571 0.939,1.291 1.26,0.192 -0.22,1.003 0,0 z"
           id="path25587"
           style="fill:#165b98;fill-opacity:1;fill-rule:nonzero;stroke:none" />
      </g>
      <g
         transform="translate(326.571,313.3528)"
         id="g25589">
        <path
           d="M 0,0 21.525,-36.148"
           id="path25591"
           style="fill:none;stroke:#e5e4e4;stroke-width:0.972;stroke-linecap:butt;stroke-linejoin:miter;stroke-miterlimit:10;stroke-opacity:1;stroke-dasharray:none" />
      </g>
      <g
         transform="translate(329.37869,301.2545)"
         id="g25593">
        <path
           d="M 0,0 14.565,-24.459"
           id="path25595"
           style="fill:none;stroke:#e5e4e4;stroke-width:0.972;stroke-linecap:butt;stroke-linejoin:miter;stroke-miterlimit:10;stroke-opacity:1;stroke-dasharray:none" />
      </g>
      <g
         transform="translate(331.0164,313.3528)"
         id="g25597">
        <path
           d="M 0,0 21.525,-36.148"
           id="path25599"
           style="fill:none;stroke:#e5e4e4;stroke-width:0.972;stroke-linecap:butt;stroke-linejoin:miter;stroke-miterlimit:10;stroke-opacity:1;stroke-dasharray:none" />
      </g>
      <g
         transform="translate(335.9297,313.3528)"
         id="g25601">
        <path
           d="M 0,0 21.525,-36.148"
           id="path25603"
           style="fill:none;stroke:#e5e4e4;stroke-width:0.972;stroke-linecap:butt;stroke-linejoin:miter;stroke-miterlimit:10;stroke-opacity:1;stroke-dasharray:none" />
      </g>
      <g
         transform="translate(340.2581,313.3528)"
         id="g25605">
        <path
           d="M 0,0 21.525,-36.148"
           id="path25607"
           style="fill:none;stroke:#e5e4e4;stroke-width:0.972;stroke-linecap:butt;stroke-linejoin:miter;stroke-miterlimit:10;stroke-opacity:1;stroke-dasharray:none" />
      </g>
      <g
         transform="translate(345.0545,313.3528)"
         id="g25609">
        <path
           d="M 0,0 21.525,-36.148"
           id="path25611"
           style="fill:none;stroke:#e5e4e4;stroke-width:0.972;stroke-linecap:butt;stroke-linejoin:miter;stroke-miterlimit:10;stroke-opacity:1;stroke-dasharray:none" />
      </g>
      <g
         transform="translate(350.0849,311.78101)"
         id="g25613">
        <path
           d="M 0,0 20.589,-34.576"
           id="path25615"
           style="fill:none;stroke:#e5e4e4;stroke-width:0.972;stroke-linecap:butt;stroke-linejoin:miter;stroke-miterlimit:10;stroke-opacity:1;stroke-dasharray:none" />
      </g>
      <g
         transform="translate(355.3492,311.78101)"
         id="g25617">
        <path
           d="M 0,0 20.589,-34.576"
           id="path25619"
           style="fill:none;stroke:#e5e4e4;stroke-width:0.972;stroke-linecap:butt;stroke-linejoin:miter;stroke-miterlimit:10;stroke-opacity:1;stroke-dasharray:none" />
      </g>
      <g
         transform="translate(361.08141,310.0125)"
         id="g25621">
        <path
           d="M 0,0 19.536,-32.808"
           id="path25623"
           style="fill:none;stroke:#e5e4e4;stroke-width:0.972;stroke-linecap:butt;stroke-linejoin:miter;stroke-miterlimit:10;stroke-opacity:1;stroke-dasharray:none" />
      </g>
      <g
         transform="translate(365.64391,310.0125)"
         id="g25625">
        <path
           d="M 0,0 19.536,-32.808"
           id="path25627"
           style="fill:none;stroke:#e5e4e4;stroke-width:0.972;stroke-linecap:butt;stroke-linejoin:miter;stroke-miterlimit:10;stroke-opacity:1;stroke-dasharray:none" />
      </g>
      <g
         transform="translate(369.8553,310.0125)"
         id="g25629">
        <path
           d="M 0,0 19.536,-32.808"
           id="path25631"
           style="fill:none;stroke:#e5e4e4;stroke-width:0.972;stroke-linecap:butt;stroke-linejoin:miter;stroke-miterlimit:10;stroke-opacity:1;stroke-dasharray:none" />
      </g>
      <g
         transform="translate(375.23669,309.7518)"
         id="g25633">
        <path
           d="M 0,0 14.389,-24.164"
           id="path25635"
           style="fill:none;stroke:#e5e4e4;stroke-width:0.972;stroke-linecap:butt;stroke-linejoin:miter;stroke-miterlimit:10;stroke-opacity:1;stroke-dasharray:none" />
      </g>
      <g
         transform="translate(379.7991,309.7518)"
         id="g25637">
        <path
           d="M 0,0 11.115,-18.666"
           id="path25639"
           style="fill:none;stroke:#e5e4e4;stroke-width:0.972;stroke-linecap:butt;stroke-linejoin:miter;stroke-miterlimit:10;stroke-opacity:1;stroke-dasharray:none" />
      </g>
      <g
         transform="translate(384.5276,309.96021)"
         id="g25641">
        <path
           d="M 0,0 7.732,-12.985"
           id="path25643"
           style="fill:none;stroke:#e5e4e4;stroke-width:0.972;stroke-linecap:butt;stroke-linejoin:miter;stroke-miterlimit:10;stroke-opacity:1;stroke-dasharray:none" />
      </g>
      <g
         transform="translate(388.94009,309.84331)"
         id="g25645">
        <path
           d="M 0,0 4.388,-7.37"
           id="path25647"
           style="fill:none;stroke:#e5e4e4;stroke-width:0.972;stroke-linecap:butt;stroke-linejoin:miter;stroke-miterlimit:10;stroke-opacity:1;stroke-dasharray:none" />
      </g>
      <g
         transform="translate(390.79559,289.3708)"
         id="g25649">
        <path
           d="M 0,0 -7.721,-12.751"
           id="path25651"
           style="fill:none;stroke:#e5e4e4;stroke-width:0.972;stroke-linecap:butt;stroke-linejoin:miter;stroke-miterlimit:10;stroke-opacity:1;stroke-dasharray:none" />
      </g>
      <g
         transform="translate(392.0825,298.0278)"
         id="g25653">
        <path
           d="M 0,0 -13.687,-20.94"
           id="path25655"
           style="fill:none;stroke:#e5e4e4;stroke-width:0.972;stroke-linecap:butt;stroke-linejoin:miter;stroke-miterlimit:10;stroke-opacity:1;stroke-dasharray:none" />
      </g>
      <g
         transform="translate(393.9145,308.67329)"
         id="g25657">
        <path
           d="M 0,0 -20.55,-31.439"
           id="path25659"
           style="fill:none;stroke:#e5e4e4;stroke-width:0.972;stroke-linecap:butt;stroke-linejoin:miter;stroke-miterlimit:10;stroke-opacity:1;stroke-dasharray:none" />
      </g>
      <g
         transform="translate(389.3521,308.7903)"
         id="g25661">
        <path
           d="M 0,0 -20.55,-31.439"
           id="path25663"
           style="fill:none;stroke:#e5e4e4;stroke-width:0.972;stroke-linecap:butt;stroke-linejoin:miter;stroke-miterlimit:10;stroke-opacity:1;stroke-dasharray:none" />
      </g>
      <g
         transform="translate(384.90669,309.7263)"
         id="g25665">
        <path
           d="M 0,0 -20.55,-31.439"
           id="path25667"
           style="fill:none;stroke:#e5e4e4;stroke-width:0.972;stroke-linecap:butt;stroke-linejoin:miter;stroke-miterlimit:10;stroke-opacity:1;stroke-dasharray:none" />
      </g>
      <g
         transform="translate(380.1105,309.7263)"
         id="g25669">
        <path
           d="M 0,0 -20.55,-31.439"
           id="path25671"
           style="fill:none;stroke:#e5e4e4;stroke-width:0.972;stroke-linecap:butt;stroke-linejoin:miter;stroke-miterlimit:10;stroke-opacity:1;stroke-dasharray:none" />
      </g>
      <g
         transform="translate(374.84621,309.3754)"
         id="g25673">
        <path
           d="M 0,0 -20.55,-31.439"
           id="path25675"
           style="fill:none;stroke:#e5e4e4;stroke-width:0.972;stroke-linecap:butt;stroke-linejoin:miter;stroke-miterlimit:10;stroke-opacity:1;stroke-dasharray:none" />
      </g>
      <g
         transform="translate(370.8954,310.3111)"
         id="g25677">
        <path
           d="M 0,0 -21.162,-32.375"
           id="path25679"
           style="fill:none;stroke:#e5e4e4;stroke-width:0.972;stroke-linecap:butt;stroke-linejoin:miter;stroke-miterlimit:10;stroke-opacity:1;stroke-dasharray:none" />
      </g>
      <g
         transform="translate(366.09891,310.4281)"
         id="g25681">
        <path
           d="M 0,0 -21.162,-32.375"
           id="path25683"
           style="fill:none;stroke:#e5e4e4;stroke-width:0.972;stroke-linecap:butt;stroke-linejoin:miter;stroke-miterlimit:10;stroke-opacity:1;stroke-dasharray:none" />
      </g>
      <g
         transform="translate(361.41969,310.7791)"
         id="g25685">
        <path
           d="M 0,0 -21.162,-32.375"
           id="path25687"
           style="fill:none;stroke:#e5e4e4;stroke-width:0.972;stroke-linecap:butt;stroke-linejoin:miter;stroke-miterlimit:10;stroke-opacity:1;stroke-dasharray:none" />
      </g>
      <g
         transform="translate(358.02699,312.30009)"
         id="g25689">
        <path
           d="M 0,0 -21.162,-32.375"
           id="path25691"
           style="fill:none;stroke:#e5e4e4;stroke-width:0.972;stroke-linecap:butt;stroke-linejoin:miter;stroke-miterlimit:10;stroke-opacity:1;stroke-dasharray:none" />
      </g>
      <g
         transform="translate(352.3076,311.68559)"
         id="g25693">
        <path
           d="M 0,0 -16.804,-25.707"
           id="path25695"
           style="fill:none;stroke:#e5e4e4;stroke-width:0.972;stroke-linecap:butt;stroke-linejoin:miter;stroke-miterlimit:10;stroke-opacity:1;stroke-dasharray:none" />
      </g>
      <g
         transform="translate(347.3645,311.715)"
         id="g25697">
        <path
           d="M 0,0 -13.891,-21.252"
           id="path25699"
           style="fill:none;stroke:#e5e4e4;stroke-width:0.972;stroke-linecap:butt;stroke-linejoin:miter;stroke-miterlimit:10;stroke-opacity:1;stroke-dasharray:none" />
      </g>
      <g
         transform="translate(342.9823,312.5339)"
         id="g25701">
        <path
           d="M 0,0 -11.317,-17.314"
           id="path25703"
           style="fill:none;stroke:#e5e4e4;stroke-width:0.972;stroke-linecap:butt;stroke-linejoin:miter;stroke-miterlimit:10;stroke-opacity:1;stroke-dasharray:none" />
      </g>
      <g
         transform="translate(338.18179,312.0659)"
         id="g25705">
        <path
           d="M 0,0 -8.335,-12.751"
           id="path25707"
           style="fill:none;stroke:#e5e4e4;stroke-width:0.972;stroke-linecap:butt;stroke-linejoin:miter;stroke-miterlimit:10;stroke-opacity:1;stroke-dasharray:none" />
      </g>
      <g
         transform="translate(333.7234,313.00169)"
         id="g25709">
        <path
           d="M 0,0 -6.041,-9.242"
           id="path25711"
           style="fill:none;stroke:#e5e4e4;stroke-width:0.972;stroke-linecap:butt;stroke-linejoin:miter;stroke-miterlimit:10;stroke-opacity:1;stroke-dasharray:none" />
      </g>
      <g
         transform="translate(328.91071,312.7491)"
         id="g25713">
        <path
           d="M 0,0 -2.574,-3.937"
           id="path25715"
           style="fill:none;stroke:#e5e4e4;stroke-width:0.972;stroke-linecap:butt;stroke-linejoin:miter;stroke-miterlimit:10;stroke-opacity:1;stroke-dasharray:none" />
      </g>
      <g
         transform="translate(311.0121,321.0737)"
         id="g25717">
        <path
           d="m 0,0 6.668,-1.755 c 0,0 1.17,0.702 3.743,-6.083 l 13.571,-34.51 c 0,0 0.935,-1.872 0,-2.691 0,0 -9.944,-4.094 -2.457,-11.932 l 52.76,-0.235 c 0,0 4.679,1.873 -0.117,3.51 l -50.771,0.351 c 0,0 -2.574,2.691 0.351,4.445 l 2.69,1.872 c 0,0 2.223,0.468 1.404,3.861 0,0 -13.336,36.265 -15.207,40.71 0,0 -1.17,2.808 -3.627,3.978 L 2.574,2.808 0,0 z"
           id="path25719"
           style="fill:#e9e9e9;fill-opacity:1;fill-rule:nonzero;stroke:none" />
      </g>
      <g
         transform="translate(324.1143,314.9906)"
         id="g25721">
        <path
           d="m 0,0 68.085,-4.679 c 0,0 3.276,0.584 2.691,-3.042 l -4.68,-28.544 c 0,0 0.234,-3.627 -3.509,-2.574 l -48.549,0 -0.936,1.989 50.187,0.468 5.03,29.129 -67.5,4.562 L 0,0 z"
           id="path25723"
           style="fill:#d9d8d7;fill-opacity:1;fill-rule:nonzero;stroke:none" />
      </g>
      <g
         transform="translate(316.64619,322.4688)"
         id="g25725">
        <path
           d="m 0,0 c -0.204,-1.539 -4.4,-2.251 -9.371,-1.591 -4.971,0.66 -8.835,2.442 -8.631,3.981 0.204,1.538 4.4,2.251 9.371,1.591 C -3.66,3.321 0.204,1.538 0,0"
           id="path25727"
           style="fill:#ed1c24;fill-opacity:1;fill-rule:nonzero;stroke:none" />
      </g>
      <g
         transform="translate(345.7563,262.289)"
         id="g25729">
        <path
           d="m 0,0 c 0,-3.715 -3.012,-6.727 -6.726,-6.727 -3.716,0 -6.727,3.012 -6.727,6.727 0,3.715 3.011,6.727 6.727,6.727 C -3.012,6.727 0,3.715 0,0"
           id="path25731"
           style="fill:#49494a;fill-opacity:1;fill-rule:nonzero;stroke:none" />
      </g>
      <g
         transform="translate(385.9407,262.289)"
         id="g25733">
        <path
           d="m 0,0 c 0,-3.715 -3.012,-6.727 -6.727,-6.727 -3.715,0 -6.726,3.012 -6.726,6.727 0,3.715 3.011,6.727 6.726,6.727 C -3.012,6.727 0,3.715 0,0"
           id="path25735"
           style="fill:#4a4a4c;fill-opacity:1;fill-rule:nonzero;stroke:none" />
      </g>
      <g
         transform="translate(342.42239,262.0545)"
         id="g25737">
        <path
           d="m 0,0 c 0,-1.809 -1.466,-3.275 -3.275,-3.275 -1.809,0 -3.276,1.466 -3.276,3.275 0,1.81 1.467,3.276 3.276,3.276 C -1.466,3.276 0,1.81 0,0"
           id="path25739"
           style="fill:#d0d0ce;fill-opacity:1;fill-rule:nonzero;stroke:none" />
      </g>
      <g
         transform="translate(382.3726,262.2301)"
         id="g25741">
        <path
           d="m 0,0 c 0,-1.809 -1.466,-3.275 -3.275,-3.275 -1.809,0 -3.276,1.466 -3.276,3.275 0,1.81 1.467,3.276 3.276,3.276 C -1.466,3.276 0,1.81 0,0"
           id="path25743"
           style="fill:#d0d0ce;fill-opacity:1;fill-rule:nonzero;stroke:none" />
      </g>
      <g
         transform="translate(359.0146,323.51579)"
         id="g25745">
        <path
           d="m 0,0 c 0,0 -0.41,3.002 -2.533,4.025 0,0 0.788,0.18 1.346,-0.052 0.558,-0.232 -0.446,1.451 -0.778,1.52 0,0 1.128,-0.265 1.233,-0.316 0.105,-0.051 -0.992,1.19 -0.992,1.19 0,0 1.488,-0.341 1.961,-1.797 L 1.936,-0.955 0,0 z"
           id="path25747"
           style="fill:#79cb3f;fill-opacity:1;fill-rule:nonzero;stroke:none" />
      </g>
    </g>
  </g>
</svg>
